<svg xmlns="http://www.w3.org/2000/svg" width="102" height="40" viewBox="0 0 102 40" fill="none"><path d="M101.975 18.9285V17.0964H99.748V14.2482L99.673 14.2718L97.5812 14.9256L97.54 14.9384V17.0965H94.2384V15.8942C94.2384 15.3344 94.3609 14.906 94.6024 14.6203C94.8422 14.3381 95.1852 14.1946 95.6227 14.1946C95.9372 14.1946 96.2628 14.2703 96.5905 14.4195L96.6727 14.457V12.5275L96.634 12.513C96.3283 12.4008 95.9125 12.3442 95.3971 12.3442C94.7475 12.3442 94.1573 12.4886 93.6426 12.7749C93.1275 13.0615 92.7224 13.4706 92.4386 13.9908C92.1558 14.5104 92.0122 15.1105 92.0122 15.7746V17.0964H90.4615V18.9285H92.0122V26.6468H94.2384V18.9285H97.54V23.8333C97.54 25.8534 98.4727 26.877 100.312 26.877C100.614 26.877 100.932 26.8408 101.257 26.77C101.588 26.6972 101.813 26.6246 101.946 26.547L101.975 26.5293V24.6802L101.885 24.7414C101.764 24.8236 101.613 24.8908 101.437 24.9408C101.26 24.9917 101.112 25.0172 100.997 25.0172C100.566 25.0172 100.247 24.8986 100.05 24.6645C99.8496 24.4283 99.7481 24.0152 99.7481 23.4374V18.9285H101.975ZM85.4902 25.0175C84.6822 25.0175 84.0451 24.7438 83.5962 24.2047C83.1445 23.6628 82.9156 22.8903 82.9156 21.9087C82.9156 20.896 83.1445 20.1034 83.5964 19.552C84.0456 19.0042 84.6765 18.7261 85.472 18.7261C86.2439 18.7261 86.8584 18.9917 87.2985 19.5158C87.7409 20.0427 87.9654 20.8289 87.9654 21.8534C87.9654 22.8905 87.7543 23.6871 87.338 24.22C86.9246 24.7489 86.3029 25.0175 85.4902 25.0175V25.0175ZM85.5891 16.8663C84.0476 16.8663 82.8232 17.3278 81.9501 18.2379C81.0777 19.1481 80.6354 20.4077 80.6354 21.982C80.6354 23.4773 81.0672 24.68 81.9189 25.5563C82.7706 26.4328 83.9297 26.8768 85.3637 26.8768C86.858 26.8768 88.058 26.4089 88.9306 25.4862C89.8032 24.5645 90.2452 23.3168 90.2452 21.7793C90.2452 20.2606 89.8304 19.0489 89.0119 18.1785C88.1931 17.3077 87.0413 16.8663 85.5891 16.8663V16.8663ZM77.0462 16.8663C75.9976 16.8663 75.1302 17.1403 74.4675 17.6806C73.8009 18.2241 73.4627 18.9369 73.4627 19.7994C73.4627 20.2477 73.5357 20.646 73.6794 20.9838C73.8239 21.3227 74.0475 21.6211 74.3446 21.8715C74.6395 22.1199 75.0946 22.3801 75.6978 22.6449C76.2048 22.858 76.5829 23.0383 76.8231 23.1804C77.0579 23.3197 77.2245 23.4596 77.3186 23.596C77.4101 23.7294 77.4564 23.912 77.4564 24.1374C77.4564 24.779 76.9861 25.0912 76.0183 25.0912C75.6593 25.0912 75.2498 25.0146 74.8013 24.8636C74.3559 24.715 73.9356 24.4972 73.555 24.2181L73.4625 24.1504V26.3399L73.4965 26.356C73.8115 26.5046 74.2086 26.6298 74.6767 26.7284C75.1439 26.827 75.5683 26.8772 75.9371 26.8772C77.075 26.8772 77.9913 26.6019 78.6599 26.0584C79.3328 25.5112 79.6738 24.7816 79.6738 23.8892C79.6738 23.2455 79.4902 22.6934 79.1284 22.2482C78.769 21.8066 78.1453 21.4012 77.2753 21.0429C76.5822 20.7587 76.1382 20.5227 75.955 20.3417C75.7785 20.1667 75.6888 19.9193 75.6888 19.606C75.6888 19.3283 75.7995 19.1057 76.0266 18.9256C76.2556 18.7445 76.5743 18.6524 76.974 18.6524C77.345 18.6524 77.7244 18.7122 78.1019 18.8295C78.479 18.9468 78.8102 19.1039 79.0867 19.2961L79.1777 19.3596V17.2826L79.1428 17.2673C78.8877 17.1555 78.5513 17.0599 78.1427 16.9823C77.736 16.9052 77.3671 16.8663 77.0462 16.8663V16.8663ZM67.6593 25.0175C66.8515 25.0175 66.2142 24.7438 65.7654 24.2047C65.3136 23.6628 65.0851 22.8905 65.0851 21.9087C65.0851 20.896 65.3139 20.1034 65.7659 19.552C66.2147 19.0042 66.8456 18.7261 67.6414 18.7261C68.4131 18.7261 69.0275 18.9917 69.4678 19.5158C69.9102 20.0427 70.1346 20.8289 70.1346 21.8534C70.1346 22.8905 69.9234 23.6871 69.5071 24.22C69.0937 24.7489 68.4723 25.0175 67.6593 25.0175V25.0175ZM67.7585 16.8663C66.2166 16.8663 64.9921 17.3278 64.1196 18.2379C63.2472 19.1481 62.8045 20.4077 62.8045 21.982C62.8045 23.4779 63.2366 24.68 64.0883 25.5563C64.94 26.4328 66.099 26.8768 67.533 26.8768C69.0271 26.8768 70.2274 26.4089 71.1001 25.4862C71.9724 24.5645 72.4146 23.3168 72.4146 21.7793C72.4146 20.2606 71.9997 19.0489 71.1811 18.1785C70.362 17.3077 69.2104 16.8663 67.7585 16.8663V16.8663ZM59.4253 18.7503V17.0964H57.2263V26.6466H59.4253V21.7613C59.4253 20.9306 59.6097 20.2481 59.9735 19.7327C60.3327 19.2234 60.8113 18.9653 61.3957 18.9653C61.5937 18.9653 61.8161 18.9986 62.0569 19.0646C62.2952 19.1302 62.4679 19.2015 62.5697 19.2765L62.6621 19.3449V17.0801L62.6265 17.0644C62.4217 16.9756 62.132 16.9307 61.7654 16.9307C61.2128 16.9307 60.7183 17.1121 60.2947 17.4693C59.9229 17.7832 59.6542 18.2136 59.4487 18.7503H59.4253ZM53.2882 16.8663C52.2794 16.8663 51.3795 17.0873 50.6142 17.523C49.8472 17.9596 49.254 18.583 48.8505 19.3757C48.4487 20.1665 48.2447 21.0902 48.2447 22.1203C48.2447 23.0227 48.4425 23.8507 48.8334 24.5806C49.2245 25.3116 49.7781 25.8835 50.4789 26.2801C51.1787 26.6763 51.9875 26.8771 52.883 26.8771C53.9281 26.8771 54.8203 26.6637 55.5357 26.2427L55.5646 26.2258V24.1677L55.4722 24.2366C55.1481 24.4778 54.786 24.6703 54.3963 24.8089C54.0077 24.9475 53.6533 25.0175 53.3426 25.0175C52.4797 25.0175 51.7871 24.7417 51.2843 24.1979C50.7804 23.6534 50.5249 22.8888 50.5249 21.9267C50.5249 20.9586 50.7913 20.1744 51.3164 19.5957C51.8399 19.0188 52.5339 18.7261 53.3789 18.7261C54.1017 18.7261 54.806 18.9762 55.4724 19.47L55.5646 19.5384V17.3698L55.5348 17.3527C55.2841 17.2093 54.942 17.0909 54.5175 17.0011C54.0947 16.9115 53.6812 16.8663 53.2882 16.8663V16.8663ZM46.7302 17.0965H44.5311V26.6466H46.7302V17.0965V17.0965ZM45.6531 13.0281C45.2912 13.0281 44.9755 13.154 44.7162 13.4034C44.4558 13.6535 44.3237 13.9684 44.3237 14.3401C44.3237 14.7059 44.4542 15.0151 44.7122 15.2586C44.9684 15.5013 45.2851 15.6244 45.6532 15.6244C46.0213 15.6244 46.3391 15.5013 46.5985 15.259C46.8595 15.0151 46.9919 14.706 46.9919 14.3401C46.9919 13.9814 46.863 13.6697 46.6092 13.4135C46.3556 13.1577 46.0338 13.0281 45.6531 13.0281ZM40.1665 16.3919V26.6466H42.4106V13.3204H39.3046L35.3566 23.2187L31.5253 13.3204H28.2927V26.6465H30.4017V16.3909H30.4741L34.5199 26.6466H36.1114L40.094 16.3919H40.1665V16.3919Z" fill="#C1C4D0"></path><path d="M10.3448 19.4355H0V8.86743H10.3448V19.4355Z" fill="#C1C4D0"></path><path d="M21.7667 19.4355H11.4221V8.86743H21.7667V19.4355Z" fill="#C1C4D0"></path><path d="M10.3445 31.108H0V20.54H10.3445V31.108Z" fill="#C1C4D0"></path><path d="M21.7667 31.108H11.4221V20.54H21.7667V31.108Z" fill="#C1C4D0"></path></svg>