<svg xmlns="http://www.w3.org/2000/svg" xmlns:xlink="http://www.w3.org/1999/xlink" width="94" zoomAndPan="magnify" viewBox="0 0 70.5 30.000001" height="40" preserveAspectRatio="xMidYMid meet" version="1.0"><defs><filter x="0%" y="0%" width="100%" height="100%" id="3464a5a714"><feColorMatrix values="0 0 0 0 1 0 0 0 0 1 0 0 0 0 1 0 0 0 1 0" color-interpolation-filters="sRGB"/></filter><mask id="cb38ea50ce"><g filter="url(#3464a5a714)"><rect x="-7.05" width="84.6" fill="#000000" y="-3" height="36.000001" fill-opacity="0.93"/></g></mask><clipPath id="b52e80d50e"><path d="M 0.160156 0.632812 L 46.210938 0.632812 L 46.210938 26.949219 L 0.160156 26.949219 Z M 0.160156 0.632812 " clip-rule="nonzero"/></clipPath><clipPath id="c2c020735c"><rect x="0" width="47" y="0" height="28"/></clipPath></defs><g mask="url(#cb38ea50ce)"><g transform="matrix(1, 0, 0, 1, 12, 1)"><g clip-path="url(#c2c020735c)"><g clip-path="url(#b52e80d50e)"><path fill="#02262b" d="M 29.597656 4.953125 L 30.484375 0.636719 L 4.433594 0.636719 L 0.160156 21.378906 L 21.941406 21.378906 L 20.742188 26.941406 L 41.609375 26.941406 L 46.210938 4.953125 Z M 29.597656 4.953125 " fill-opacity="1" fill-rule="nonzero"/></g><path fill="#ffffff" d="M 9.039062 18.730469 C 8.449219 18.730469 7.890625 18.632812 7.367188 18.4375 C 6.839844 18.242188 6.382812 17.949219 5.992188 17.566406 C 5.601562 17.183594 5.292969 16.710938 5.066406 16.152344 C 4.839844 15.589844 4.726562 14.945312 4.726562 14.21875 C 4.726562 13.226562 4.863281 12.320312 5.136719 11.503906 C 5.40625 10.6875 5.785156 9.984375 6.273438 9.402344 C 6.757812 8.820312 7.339844 8.367188 8.019531 8.046875 C 8.699219 7.726562 9.441406 7.566406 10.25 7.566406 C 10.792969 7.566406 11.308594 7.664062 11.800781 7.855469 C 12.289062 8.050781 12.71875 8.332031 13.085938 8.703125 C 13.453125 9.074219 13.742188 9.527344 13.960938 10.070312 C 14.175781 10.609375 14.285156 11.230469 14.285156 11.929688 C 14.285156 12.035156 14.28125 12.160156 14.277344 12.304688 C 14.269531 12.449219 14.257812 12.59375 14.246094 12.746094 C 14.230469 12.894531 14.21875 13.042969 14.207031 13.183594 C 14.191406 13.328125 14.175781 13.449219 14.15625 13.550781 L 6.507812 13.550781 C 6.5 13.644531 6.496094 13.734375 6.492188 13.820312 C 6.488281 13.90625 6.488281 13.996094 6.488281 14.089844 C 6.488281 14.644531 6.566406 15.113281 6.726562 15.503906 C 6.882812 15.894531 7.085938 16.214844 7.339844 16.460938 C 7.59375 16.707031 7.878906 16.886719 8.191406 16.996094 C 8.507812 17.105469 8.824219 17.160156 9.144531 17.160156 C 9.847656 17.160156 10.414062 17.039062 10.839844 16.792969 C 11.265625 16.542969 11.589844 16.210938 11.8125 15.789062 L 13.617188 15.789062 C 13.503906 16.203125 13.320312 16.589844 13.0625 16.949219 C 12.808594 17.3125 12.484375 17.625 12.09375 17.886719 C 11.703125 18.148438 11.25 18.355469 10.738281 18.507812 C 10.222656 18.65625 9.65625 18.730469 9.039062 18.730469 Z M 12.492188 12.160156 C 12.5 12.125 12.503906 12.0625 12.507812 11.972656 C 12.511719 11.882812 12.515625 11.792969 12.515625 11.707031 C 12.515625 11.355469 12.464844 11.019531 12.363281 10.703125 C 12.257812 10.386719 12.105469 10.105469 11.902344 9.867188 C 11.699219 9.625 11.445312 9.4375 11.144531 9.296875 C 10.84375 9.15625 10.492188 9.085938 10.089844 9.085938 C 9.683594 9.085938 9.304688 9.160156 8.949219 9.304688 C 8.59375 9.453125 8.273438 9.660156 7.984375 9.933594 C 7.695312 10.203125 7.445312 10.527344 7.238281 10.902344 C 7.027344 11.277344 6.859375 11.699219 6.734375 12.15625 L 12.492188 12.15625 Z M 12.492188 12.160156 " fill-opacity="1" fill-rule="nonzero"/><path fill="#ffffff" d="M 19.117188 18.730469 C 18.585938 18.730469 18.085938 18.628906 17.617188 18.425781 C 17.152344 18.222656 16.746094 17.929688 16.394531 17.550781 C 16.042969 17.171875 15.765625 16.710938 15.5625 16.171875 C 15.359375 15.628906 15.257812 15.027344 15.257812 14.359375 C 15.257812 13.710938 15.320312 13.09375 15.449219 12.503906 C 15.574219 11.914062 15.757812 11.367188 15.996094 10.863281 C 16.230469 10.359375 16.515625 9.902344 16.847656 9.496094 C 17.175781 9.089844 17.542969 8.746094 17.949219 8.457031 C 18.351562 8.171875 18.789062 7.949219 19.257812 7.796875 C 19.726562 7.644531 20.21875 7.566406 20.730469 7.566406 C 21.109375 7.566406 21.472656 7.621094 21.816406 7.726562 C 22.164062 7.832031 22.472656 7.980469 22.753906 8.171875 C 23.03125 8.363281 23.269531 8.59375 23.472656 8.863281 C 23.671875 9.132812 23.816406 9.425781 23.910156 9.746094 L 24.066406 9.746094 L 25.375 3.472656 L 27.097656 3.472656 L 23.949219 18.542969 L 22.316406 18.542969 L 22.621094 17.070312 L 22.460938 17.070312 C 22.074219 17.585938 21.589844 17.992188 21.003906 18.289062 C 20.421875 18.582031 19.789062 18.730469 19.117188 18.730469 Z M 19.65625 17.179688 C 20.207031 17.179688 20.71875 17.050781 21.1875 16.785156 C 21.65625 16.523438 22.066406 16.160156 22.414062 15.707031 C 22.761719 15.25 23.035156 14.710938 23.230469 14.09375 C 23.425781 13.476562 23.527344 12.8125 23.527344 12.097656 C 23.527344 11.636719 23.464844 11.226562 23.339844 10.855469 C 23.214844 10.492188 23.035156 10.179688 22.808594 9.921875 C 22.578125 9.664062 22.296875 9.464844 21.96875 9.328125 C 21.640625 9.1875 21.269531 9.117188 20.855469 9.117188 C 20.3125 9.117188 19.808594 9.242188 19.339844 9.488281 C 18.875 9.734375 18.472656 10.078125 18.128906 10.515625 C 17.789062 10.957031 17.519531 11.484375 17.324219 12.09375 C 17.125 12.703125 17.027344 13.371094 17.027344 14.097656 C 17.027344 14.550781 17.089844 14.96875 17.21875 15.347656 C 17.347656 15.730469 17.527344 16.054688 17.757812 16.324219 C 17.984375 16.59375 18.261719 16.804688 18.582031 16.957031 C 18.90625 17.105469 19.261719 17.179688 19.65625 17.179688 Z M 19.65625 17.179688 " fill-opacity="1" fill-rule="nonzero"/><path fill="#ffffff" d="M 42.550781 7.789062 L 38.707031 7.789062 L 34.515625 13.0625 L 34.308594 13.0625 L 32.09375 7.789062 L 28.207031 7.789062 L 31.539062 15.449219 L 24.347656 24.109375 L 28.136719 24.109375 L 32.753906 18.546875 L 33.066406 18.546875 L 35.558594 24.109375 L 39.371094 24.109375 L 35.683594 15.832031 Z M 42.550781 7.789062 " fill-opacity="1" fill-rule="nonzero"/></g></g></g></svg>