<svg xmlns="http://www.w3.org/2000/svg" xmlns:xlink="http://www.w3.org/1999/xlink" width="94" zoomAndPan="magnify" viewBox="0 0 70.5 30.000001" height="40" preserveAspectRatio="xMidYMid meet" version="1.0"><defs><clipPath id="195f1dda12"><path d="M 61 8 L 68.378906 8 L 68.378906 15 L 61 15 Z M 61 8 " clip-rule="nonzero"/></clipPath><clipPath id="0a9da9d79e"><path d="M 1.863281 6.226562 L 16 6.226562 L 16 23 L 1.863281 23 Z M 1.863281 6.226562 " clip-rule="nonzero"/></clipPath><clipPath id="6139759021"><path d="M 1.863281 6.226562 L 17 6.226562 L 17 23.039062 L 1.863281 23.039062 Z M 1.863281 6.226562 " clip-rule="nonzero"/></clipPath></defs><path fill="#1e1e1e" d="M 28.726562 17.847656 C 28.726562 17.703125 28.636719 17.59375 28.441406 17.558594 L 28.441406 17.46875 C 28.546875 17.46875 28.886719 17.488281 28.992188 17.488281 C 29.082031 17.488281 29.402344 17.46875 29.507812 17.46875 L 29.507812 17.558594 C 29.332031 17.59375 29.242188 17.703125 29.242188 17.847656 L 29.242188 19.636719 C 29.242188 20.207031 29.542969 20.53125 30.203125 20.53125 C 30.753906 20.53125 31.199219 20.277344 31.199219 19.6875 L 31.199219 17.828125 C 31.199219 17.703125 31.109375 17.59375 30.914062 17.542969 L 30.914062 17.453125 C 30.984375 17.453125 31.269531 17.46875 31.378906 17.46875 C 31.464844 17.46875 31.769531 17.453125 31.839844 17.453125 L 31.839844 17.542969 C 31.644531 17.59375 31.554688 17.683594 31.554688 17.828125 L 31.554688 19.582031 C 31.554688 20.367188 31.109375 20.816406 30.132812 20.816406 C 29.226562 20.816406 28.746094 20.40625 28.746094 19.671875 Z M 28.726562 17.847656 " fill-opacity="1" fill-rule="nonzero"/><path fill="#1e1e1e" d="M 32.640625 20.671875 C 32.855469 20.636719 32.941406 20.53125 32.941406 20.386719 L 32.941406 17.917969 C 32.941406 17.703125 32.835938 17.613281 32.640625 17.558594 L 32.640625 17.46875 C 32.746094 17.46875 32.925781 17.488281 33.015625 17.488281 C 33.101562 17.488281 33.226562 17.488281 33.316406 17.46875 L 35.453125 19.992188 L 35.453125 17.828125 C 35.453125 17.703125 35.363281 17.59375 35.167969 17.542969 L 35.167969 17.453125 C 35.238281 17.453125 35.523438 17.46875 35.609375 17.46875 C 35.699219 17.46875 35.984375 17.453125 36.074219 17.453125 L 36.074219 17.542969 C 35.878906 17.59375 35.769531 17.683594 35.769531 17.828125 L 35.769531 20.796875 L 35.648438 20.796875 C 35.558594 20.78125 35.414062 20.691406 35.183594 20.441406 L 33.261719 18.203125 L 33.261719 20.386719 C 33.261719 20.511719 33.335938 20.621094 33.546875 20.671875 L 33.546875 20.761719 C 33.476562 20.761719 33.191406 20.746094 33.101562 20.746094 C 33.015625 20.746094 32.730469 20.761719 32.65625 20.761719 L 32.65625 20.671875 Z M 32.640625 20.671875 " fill-opacity="1" fill-rule="nonzero"/><path fill="#1e1e1e" d="M 49.523438 19.992188 L 49.613281 19.992188 C 49.664062 20.171875 49.773438 20.351562 49.914062 20.441406 C 50.074219 20.546875 50.304688 20.601562 50.5 20.601562 C 50.929688 20.601562 51.214844 20.386719 51.214844 20.046875 C 51.214844 19.6875 50.855469 19.511719 50.449219 19.296875 C 50.128906 19.132812 49.523438 18.882812 49.523438 18.292969 C 49.523438 17.738281 49.949219 17.398438 50.609375 17.398438 C 51.054688 17.398438 51.265625 17.503906 51.550781 17.488281 L 51.550781 18.167969 L 51.460938 18.167969 C 51.335938 17.773438 50.980469 17.632812 50.589844 17.632812 C 50.144531 17.632812 49.984375 17.882812 49.984375 18.132812 C 49.984375 18.488281 50.339844 18.6875 50.75 18.867188 C 51.214844 19.0625 51.695312 19.332031 51.695312 19.902344 C 51.695312 20.441406 51.265625 20.835938 50.5 20.835938 C 50.039062 20.835938 49.773438 20.707031 49.523438 20.671875 Z M 49.523438 19.992188 " fill-opacity="1" fill-rule="nonzero"/><path fill="#1e1e1e" d="M 58.71875 19.402344 L 57.847656 17.988281 C 57.707031 17.738281 57.582031 17.613281 57.421875 17.542969 L 57.421875 17.453125 C 57.546875 17.453125 57.867188 17.46875 57.957031 17.46875 C 58.042969 17.46875 58.382812 17.453125 58.507812 17.453125 L 58.507812 17.542969 C 58.398438 17.558594 58.347656 17.613281 58.347656 17.703125 C 58.347656 17.773438 58.398438 17.882812 58.453125 17.953125 C 58.507812 18.042969 59.09375 19.027344 59.09375 19.027344 L 59.714844 17.953125 C 59.789062 17.847656 59.824219 17.738281 59.824219 17.667969 C 59.824219 17.59375 59.769531 17.558594 59.679688 17.542969 L 59.679688 17.453125 C 59.789062 17.453125 60 17.46875 60.074219 17.46875 C 60.144531 17.46875 60.394531 17.453125 60.5 17.453125 L 60.5 17.542969 C 60.269531 17.632812 60.109375 17.847656 59.964844 18.097656 L 59.183594 19.421875 M 59.21875 19.257812 L 59.21875 20.386719 C 59.21875 20.492188 59.308594 20.636719 59.484375 20.671875 L 59.484375 20.761719 C 59.378906 20.761719 59.023438 20.746094 58.933594 20.746094 C 58.84375 20.746094 58.523438 20.761719 58.398438 20.761719 L 58.398438 20.671875 C 58.597656 20.636719 58.683594 20.492188 58.683594 20.386719 L 58.683594 19.3125 " fill-opacity="1" fill-rule="nonzero"/><path fill="#1e1e1e" d="M 42.53125 17.453125 L 44.578125 17.453125 C 44.648438 17.453125 44.753906 17.453125 44.808594 17.417969 L 44.898438 17.417969 L 44.878906 18.078125 L 44.789062 18.078125 C 44.71875 17.863281 44.628906 17.703125 44.238281 17.703125 L 43.351562 17.703125 L 43.351562 18.867188 L 44.027344 18.867188 C 44.132812 18.867188 44.238281 18.867188 44.292969 18.847656 C 44.453125 18.8125 44.507812 18.722656 44.542969 18.597656 L 44.628906 18.597656 C 44.628906 18.703125 44.628906 18.917969 44.628906 18.992188 C 44.628906 19.0625 44.628906 19.296875 44.628906 19.402344 L 44.558594 19.402344 C 44.523438 19.277344 44.453125 19.167969 44.3125 19.132812 C 44.257812 19.117188 44.132812 19.117188 44.042969 19.117188 L 43.367188 19.117188 L 43.367188 20.476562 L 44.328125 20.476562 C 44.753906 20.476562 44.878906 20.296875 44.96875 20.046875 L 45.058594 20.066406 L 44.96875 20.746094 C 44.648438 20.707031 44.472656 20.707031 44.113281 20.707031 L 43.101562 20.707031 C 42.992188 20.707031 42.636719 20.726562 42.53125 20.726562 L 42.53125 20.636719 C 42.710938 20.601562 42.816406 20.511719 42.816406 20.332031 L 42.816406 17.847656 C 42.816406 17.683594 42.726562 17.59375 42.53125 17.558594 Z M 42.53125 17.453125 " fill-opacity="1" fill-rule="nonzero"/><path fill="#1e1e1e" d="M 37.320312 17.863281 C 37.320312 17.703125 37.210938 17.59375 37.015625 17.558594 L 37.015625 17.46875 C 37.125 17.46875 37.480469 17.488281 37.585938 17.488281 C 37.675781 17.488281 38.03125 17.46875 38.15625 17.46875 L 38.15625 17.558594 C 37.960938 17.59375 37.851562 17.683594 37.851562 17.863281 L 37.851562 20.367188 C 37.851562 20.53125 37.960938 20.636719 38.15625 20.671875 L 38.15625 20.761719 C 38.046875 20.761719 37.691406 20.746094 37.585938 20.746094 C 37.496094 20.746094 37.125 20.761719 37.015625 20.761719 L 37.015625 20.671875 C 37.210938 20.636719 37.320312 20.546875 37.320312 20.367188 Z M 37.320312 17.863281 " fill-opacity="1" fill-rule="nonzero"/><path fill="#1e1e1e" d="M 52.8125 17.863281 C 52.8125 17.703125 52.707031 17.59375 52.511719 17.558594 L 52.511719 17.46875 C 52.617188 17.46875 52.972656 17.488281 53.082031 17.488281 C 53.171875 17.488281 53.527344 17.46875 53.648438 17.46875 L 53.648438 17.558594 C 53.453125 17.59375 53.347656 17.683594 53.347656 17.863281 L 53.347656 20.367188 C 53.347656 20.53125 53.453125 20.636719 53.648438 20.671875 L 53.648438 20.761719 C 53.542969 20.761719 53.1875 20.746094 53.082031 20.746094 C 52.992188 20.746094 52.617188 20.761719 52.511719 20.761719 L 52.511719 20.671875 C 52.707031 20.636719 52.8125 20.546875 52.8125 20.367188 Z M 52.8125 17.863281 " fill-opacity="1" fill-rule="nonzero"/><path fill="#1e1e1e" d="M 55.644531 17.46875 C 54.523438 17.46875 54.34375 17.453125 54.113281 17.433594 L 54.113281 18.113281 L 54.203125 18.113281 C 54.289062 17.808594 54.449219 17.738281 54.664062 17.738281 L 55.359375 17.738281 L 55.359375 20.367188 C 55.359375 20.546875 55.269531 20.636719 55.054688 20.671875 L 55.054688 20.761719 C 55.164062 20.761719 55.535156 20.746094 55.625 20.746094 C 55.730469 20.746094 56.070312 20.761719 56.195312 20.761719 L 56.195312 20.671875 C 56 20.636719 55.890625 20.53125 55.890625 20.367188 L 55.890625 17.757812 L 56.585938 17.757812 C 56.816406 17.757812 56.976562 17.828125 57.046875 18.132812 L 57.136719 18.132812 L 57.136719 17.453125 C 56.941406 17.453125 56.761719 17.46875 55.644531 17.46875 " fill-opacity="1" fill-rule="nonzero"/><path fill="#1e1e1e" d="M 46.710938 20.367188 C 46.710938 20.53125 46.820312 20.636719 47.015625 20.671875 L 47.015625 20.761719 C 46.90625 20.761719 46.550781 20.746094 46.445312 20.746094 C 46.355469 20.746094 46 20.761719 45.894531 20.761719 L 45.894531 20.671875 C 46.070312 20.636719 46.179688 20.546875 46.179688 20.367188 L 46.179688 17.828125 C 46.179688 17.667969 46.089844 17.578125 45.894531 17.542969 L 45.894531 17.453125 C 46 17.453125 46.355469 17.46875 46.445312 17.46875 C 46.605469 17.46875 47.066406 17.433594 47.246094 17.433594 C 48.027344 17.433594 48.472656 17.757812 48.472656 18.3125 C 48.472656 18.757812 48.152344 19.042969 47.65625 19.167969 C 47.65625 19.167969 47.761719 19.242188 47.886719 19.367188 C 48.027344 19.527344 48.402344 20.066406 48.5625 20.261719 C 48.722656 20.457031 48.917969 20.65625 49.132812 20.671875 L 49.132812 20.746094 C 49.023438 20.761719 48.863281 20.78125 48.742188 20.78125 C 48.472656 20.78125 48.261719 20.691406 48.046875 20.441406 C 47.867188 20.226562 47.566406 19.761719 47.386719 19.546875 C 47.28125 19.402344 47.140625 19.277344 46.890625 19.242188 C 46.835938 19.242188 46.800781 19.222656 46.730469 19.222656 Z M 46.710938 19.027344 C 46.820312 19.042969 46.980469 19.042969 47.121094 19.042969 C 47.742188 19.042969 47.921875 18.6875 47.921875 18.382812 C 47.921875 17.933594 47.621094 17.667969 47.085938 17.667969 C 46.980469 17.667969 46.820312 17.683594 46.695312 17.703125 Z M 46.710938 19.027344 " fill-opacity="1" fill-rule="nonzero"/><path fill="#1e1e1e" d="M 38.9375 17.863281 C 38.867188 17.703125 38.761719 17.59375 38.5625 17.542969 L 38.5625 17.453125 C 38.6875 17.453125 39.082031 17.46875 39.167969 17.46875 C 39.257812 17.46875 39.597656 17.453125 39.722656 17.453125 L 39.722656 17.542969 C 39.613281 17.558594 39.488281 17.613281 39.488281 17.738281 C 39.488281 17.808594 39.542969 17.917969 39.632812 18.132812 L 40.484375 20.066406 L 41.285156 18.132812 C 41.359375 17.972656 41.394531 17.847656 41.394531 17.757812 C 41.394531 17.648438 41.304688 17.578125 41.160156 17.558594 L 41.160156 17.46875 C 41.269531 17.46875 41.535156 17.488281 41.605469 17.488281 C 41.675781 17.488281 41.980469 17.46875 42.105469 17.46875 L 42.105469 17.558594 C 41.910156 17.613281 41.785156 17.71875 41.675781 17.988281 L 40.503906 20.78125 L 40.238281 20.78125 Z M 38.9375 17.863281 " fill-opacity="1" fill-rule="nonzero"/><path fill="#1e1e1e" d="M 41.945312 9.058594 C 41.800781 8.753906 41.605469 8.542969 41.25 8.453125 L 41.25 8.273438 C 41.464844 8.273438 42.195312 8.289062 42.371094 8.289062 C 42.53125 8.289062 43.226562 8.273438 43.457031 8.273438 L 43.457031 8.453125 C 43.261719 8.488281 43.03125 8.59375 43.03125 8.808594 C 43.03125 8.953125 43.117188 9.148438 43.296875 9.542969 L 44.898438 13.210938 L 46.410156 9.542969 C 46.535156 9.238281 46.625 9.023438 46.625 8.84375 C 46.625 8.648438 46.445312 8.523438 46.195312 8.46875 L 46.195312 8.289062 C 46.390625 8.289062 46.890625 8.308594 47.03125 8.308594 C 47.175781 8.308594 47.761719 8.289062 47.976562 8.289062 L 47.976562 8.453125 C 47.601562 8.558594 47.371094 8.773438 47.15625 9.273438 L 44.914062 14.570312 L 44.417969 14.570312 Z M 41.945312 9.058594 " fill-opacity="1" fill-rule="nonzero"/><path fill="#1e1e1e" d="M 20.347656 14.355469 C 20.632812 14.285156 20.84375 14.160156 20.84375 13.820312 L 20.84375 8.96875 C 20.84375 8.648438 20.648438 8.523438 20.347656 8.433594 L 20.347656 8.253906 C 20.507812 8.253906 21.164062 8.273438 21.324219 8.273438 C 21.503906 8.273438 22.199219 8.253906 22.359375 8.253906 L 22.359375 8.433594 C 22.074219 8.503906 21.84375 8.628906 21.84375 8.96875 L 21.84375 10.992188 L 25.433594 10.992188 L 25.433594 8.96875 C 25.433594 8.628906 25.238281 8.503906 24.9375 8.433594 L 24.9375 8.253906 C 25.097656 8.253906 25.773438 8.273438 25.953125 8.273438 C 26.113281 8.273438 26.789062 8.253906 26.929688 8.253906 L 26.929688 8.433594 C 26.644531 8.503906 26.414062 8.628906 26.414062 8.96875 L 26.414062 13.820312 C 26.414062 14.140625 26.609375 14.265625 26.929688 14.355469 L 26.929688 14.515625 C 26.789062 14.515625 26.113281 14.5 25.953125 14.5 C 25.773438 14.5 25.097656 14.515625 24.9375 14.515625 L 24.9375 14.355469 C 25.222656 14.285156 25.433594 14.160156 25.433594 13.820312 L 25.433594 11.527344 L 21.84375 11.527344 L 21.84375 13.820312 C 21.84375 14.160156 22.039062 14.265625 22.359375 14.355469 L 22.359375 14.515625 C 22.199219 14.515625 21.523438 14.5 21.324219 14.5 C 21.164062 14.5 20.507812 14.515625 20.347656 14.515625 Z M 20.347656 14.355469 " fill-opacity="1" fill-rule="nonzero"/><g clip-path="url(#195f1dda12)"><path fill="#1e1e1e" d="M 61.941406 14.355469 C 62.3125 14.285156 62.527344 14.140625 62.527344 13.800781 L 62.527344 8.96875 C 62.527344 8.628906 62.332031 8.503906 61.957031 8.433594 L 61.957031 8.253906 C 62.171875 8.253906 62.847656 8.273438 63.027344 8.273438 C 63.328125 8.273438 64.164062 8.199219 64.824219 8.199219 C 67.027344 8.199219 68.378906 9.4375 68.378906 11.332031 C 68.378906 13.175781 66.976562 14.535156 64.699219 14.535156 C 64.039062 14.535156 63.257812 14.480469 62.953125 14.480469 C 62.777344 14.480469 62.136719 14.5 61.941406 14.5 Z M 63.523438 14.035156 C 63.753906 14.070312 64.164062 14.105469 64.503906 14.105469 C 66.351562 14.105469 67.332031 12.980469 67.332031 11.402344 C 67.332031 9.777344 66.316406 8.628906 64.574219 8.628906 C 64.21875 8.628906 63.773438 8.648438 63.542969 8.703125 L 63.542969 14.035156 Z M 63.523438 14.035156 " fill-opacity="1" fill-rule="nonzero"/></g><path fill="#1e1e1e" d="M 36.910156 13.785156 C 36.910156 14.105469 37.105469 14.285156 37.480469 14.355469 L 37.480469 14.535156 C 37.265625 14.535156 36.589844 14.515625 36.394531 14.515625 C 36.234375 14.515625 35.558594 14.535156 35.363281 14.535156 L 35.363281 14.355469 C 35.699219 14.285156 35.914062 14.125 35.914062 13.785156 L 35.914062 8.988281 C 35.914062 8.703125 35.753906 8.503906 35.363281 8.433594 L 35.363281 8.253906 C 35.574219 8.253906 36.234375 8.273438 36.410156 8.273438 C 36.714844 8.273438 37.585938 8.21875 37.925781 8.21875 C 39.417969 8.21875 40.238281 8.84375 40.238281 9.902344 C 40.238281 10.742188 39.613281 11.296875 38.671875 11.527344 C 38.671875 11.527344 38.882812 11.65625 39.097656 11.90625 C 39.363281 12.210938 40.078125 13.265625 40.378906 13.621094 C 40.664062 13.980469 41.054688 14.375 41.445312 14.390625 L 41.445312 14.535156 C 41.25 14.570312 40.949219 14.605469 40.71875 14.605469 C 40.21875 14.605469 39.808594 14.429688 39.417969 13.945312 C 39.082031 13.535156 38.492188 12.65625 38.15625 12.210938 C 37.941406 11.941406 37.675781 11.707031 37.195312 11.636719 C 37.105469 11.617188 37.015625 11.601562 36.910156 11.601562 Z M 36.910156 11.242188 C 37.105469 11.261719 37.390625 11.277344 37.691406 11.277344 C 38.847656 11.277344 39.222656 10.597656 39.222656 10.007812 C 39.222656 9.167969 38.671875 8.648438 37.640625 8.648438 C 37.425781 8.648438 37.125 8.667969 36.910156 8.71875 Z M 36.910156 11.242188 " fill-opacity="1" fill-rule="nonzero"/><path fill="#1e1e1e" d="M 56.515625 13.785156 C 56.515625 14.105469 56.710938 14.285156 57.082031 14.355469 L 57.082031 14.535156 C 56.871094 14.535156 56.195312 14.515625 56 14.515625 C 55.839844 14.515625 55.164062 14.535156 54.96875 14.535156 L 54.96875 14.355469 C 55.304688 14.285156 55.519531 14.125 55.519531 13.785156 L 55.519531 8.988281 C 55.519531 8.703125 55.359375 8.503906 54.96875 8.433594 L 54.96875 8.253906 C 55.179688 8.253906 55.820312 8.273438 56.015625 8.273438 C 56.320312 8.273438 57.191406 8.21875 57.527344 8.21875 C 59.023438 8.21875 59.839844 8.84375 59.839844 9.902344 C 59.839844 10.742188 59.21875 11.296875 58.277344 11.527344 C 58.277344 11.527344 58.488281 11.65625 58.703125 11.90625 C 58.96875 12.210938 59.699219 13.265625 59.984375 13.621094 C 60.285156 13.980469 60.660156 14.375 61.050781 14.390625 L 61.050781 14.535156 C 60.855469 14.570312 60.554688 14.605469 60.320312 14.605469 C 59.804688 14.605469 59.414062 14.429688 59.023438 13.945312 C 58.683594 13.535156 58.097656 12.65625 57.761719 12.210938 C 57.546875 11.941406 57.28125 11.707031 56.800781 11.636719 C 56.710938 11.617188 56.621094 11.601562 56.515625 11.601562 Z M 56.515625 11.242188 C 56.710938 11.261719 56.996094 11.277344 57.296875 11.277344 C 58.453125 11.277344 58.828125 10.597656 58.828125 10.007812 C 58.828125 9.167969 58.277344 8.648438 57.242188 8.648438 C 57.03125 8.648438 56.726562 8.667969 56.515625 8.71875 Z M 56.515625 11.242188 " fill-opacity="1" fill-rule="nonzero"/><path fill="#1e1e1e" d="M 27.890625 14.355469 C 28.28125 14.265625 28.496094 14.015625 28.636719 13.660156 L 30.628906 8.84375 C 30.71875 8.648438 30.808594 8.238281 30.808594 8.238281 L 31.359375 8.238281 C 31.359375 8.238281 31.464844 8.648438 31.539062 8.84375 L 33.636719 13.675781 C 33.777344 14.015625 33.957031 14.25 34.367188 14.355469 L 34.367188 14.515625 C 34.132812 14.515625 33.421875 14.5 33.261719 14.5 C 33.101562 14.5 32.425781 14.515625 32.195312 14.515625 L 32.195312 14.355469 C 32.496094 14.285156 32.605469 14.125 32.605469 13.980469 C 32.605469 13.855469 32.550781 13.710938 32.480469 13.550781 L 32.035156 12.511719 L 29.722656 12.511719 L 29.3125 13.550781 C 29.261719 13.675781 29.207031 13.835938 29.207031 13.945312 C 29.207031 14.125 29.296875 14.25 29.652344 14.355469 L 29.652344 14.515625 C 29.4375 14.515625 28.90625 14.5 28.78125 14.5 L 27.871094 14.515625 Z M 31.859375 12.011719 L 30.863281 9.6875 L 29.9375 12.011719 Z M 31.859375 12.011719 " fill-opacity="1" fill-rule="nonzero"/><path fill="#1e1e1e" d="M 47.621094 14.355469 C 48.011719 14.265625 48.222656 14.015625 48.367188 13.660156 L 50.359375 8.84375 C 50.449219 8.648438 50.535156 8.238281 50.535156 8.238281 L 51.089844 8.238281 C 51.089844 8.238281 51.195312 8.648438 51.265625 8.84375 L 53.367188 13.675781 C 53.507812 14.015625 53.6875 14.25 54.09375 14.355469 L 54.09375 14.515625 C 53.863281 14.515625 53.152344 14.5 52.992188 14.5 C 52.832031 14.5 52.15625 14.515625 51.925781 14.515625 L 51.925781 14.355469 C 52.226562 14.285156 52.332031 14.125 52.332031 13.980469 C 52.332031 13.855469 52.28125 13.710938 52.226562 13.550781 L 51.78125 12.511719 L 49.46875 12.511719 L 49.058594 13.550781 C 49.007812 13.675781 48.953125 13.835938 48.953125 13.945312 C 48.953125 14.125 49.042969 14.25 49.398438 14.355469 L 49.398438 14.515625 C 49.183594 14.515625 48.652344 14.5 48.527344 14.5 L 47.621094 14.515625 Z M 51.585938 12.011719 L 50.589844 9.6875 L 49.664062 12.011719 Z M 51.585938 12.011719 " fill-opacity="1" fill-rule="nonzero"/><g clip-path="url(#0a9da9d79e)"><path fill="#808080" d="M 1.96875 6.320312 L 15.847656 6.320312 L 15.847656 11.601562 C 15.847656 14.015625 14.957031 19.152344 8.960938 22.964844 C 8.960938 22.964844 2.46875 20.226562 1.96875 11.601562 C 1.96875 11.601562 1.96875 6.320312 1.96875 6.320312 Z M 1.96875 6.320312 " fill-opacity="1" fill-rule="nonzero"/></g><g clip-path="url(#6139759021)"><path stroke-linecap="butt" transform="matrix(0.1779, 0, 0, 0.178937, 1.863655, 6.232755)" fill="none" stroke-linejoin="miter" d="M 0.50292 0.489323 L 78.496166 0.489323 L 78.496166 30.00395 C 78.496166 43.495104 73.489843 72.092856 39.806949 93.508425 C 39.806949 93.508425 3.29153 78.292674 0.50292 30.00395 Z M 0.50292 0.489323 " stroke="#000000" stroke-width="0.915" stroke-opacity="1" stroke-miterlimit="4"/></g><path fill="#ffffff" d="M 12.484375 13.105469 C 12.484375 13.105469 12.359375 13.496094 11.808594 13.085938 L 9.921875 13.03125 C 9.921875 13.03125 9.671875 13.105469 9.636719 12.851562 C 9.636719 12.851562 9.691406 12.335938 9.65625 12.28125 C 9.65625 12.28125 9.671875 12.136719 9.425781 12.136719 C 9.425781 12.136719 9.03125 12.191406 9.03125 11.851562 C 9.03125 11.851562 8.960938 11.492188 9.496094 11.492188 C 9.496094 11.492188 9.65625 11.566406 9.671875 11.351562 C 9.671875 11.351562 9.65625 9.882812 9.65625 9.777344 C 9.65625 9.777344 9.710938 9.632812 9.441406 9.613281 C 9.441406 9.613281 9.070312 9.6875 9.03125 9.453125 C 9.03125 9.453125 9.015625 9.078125 9.265625 9.058594 C 9.265625 9.058594 9.566406 9.078125 9.621094 9.007812 C 9.621094 9.007812 9.691406 9.042969 9.671875 8.773438 L 9.691406 8.308594 C 9.691406 8.308594 9.726562 8.183594 9.921875 8.199219 C 9.921875 8.199219 10.277344 8.21875 10.3125 8.183594 C 10.3125 8.183594 10.386719 8.074219 10.421875 8.039062 C 10.421875 8.039062 10.597656 8.023438 10.632812 8.074219 C 10.632812 8.074219 10.902344 8.253906 11.933594 8.183594 C 11.933594 8.183594 12.09375 8.183594 12.128906 8.238281 C 12.128906 8.238281 12.324219 8.378906 12.429688 8.21875 C 12.429688 8.21875 12.589844 8.183594 13.105469 8.199219 C 13.105469 8.199219 13.660156 8.34375 14.050781 8.039062 L 14.175781 8.058594 C 14.175781 8.058594 14.335938 8.328125 14.441406 8.238281 C 14.441406 8.238281 14.777344 8.199219 14.832031 8.273438 C 14.832031 8.273438 14.9375 8.433594 14.886719 8.882812 C 14.886719 8.882812 14.816406 9.078125 15.152344 9.078125 C 15.152344 9.078125 15.527344 9.007812 15.472656 9.363281 C 15.472656 9.363281 15.578125 9.757812 14.957031 9.703125 C 14.957031 9.703125 14.886719 9.8125 14.886719 9.902344 C 14.886719 9.902344 14.867188 11.1875 14.867188 11.332031 C 14.867188 11.332031 14.851562 11.527344 15.136719 11.527344 C 15.136719 11.527344 15.492188 11.511719 15.507812 11.832031 C 15.507812 11.832031 15.5625 12.261719 15.027344 12.191406 C 15.027344 12.191406 14.867188 12.210938 14.851562 12.316406 L 14.832031 12.890625 C 14.832031 12.890625 14.851562 13.175781 14.53125 13.105469 C 14.476562 13.105469 12.769531 13.140625 12.625 13.085938 C 12.574219 13.066406 12.503906 13.050781 12.484375 13.105469 " fill-opacity="1" fill-rule="nonzero"/><path fill="#ffffff" d="M 8.835938 15 C 8.835938 15 8.910156 14.964844 8.945312 14.910156 C 8.945312 14.910156 9.175781 14.894531 9.210938 14.859375 L 9.957031 14.910156 C 9.957031 14.910156 10.6875 14.964844 11.007812 14.730469 C 11.007812 14.730469 11.113281 14.730469 11.203125 14.769531 C 11.203125 14.769531 11.363281 14.804688 11.398438 14.875 L 11.824219 14.859375 C 11.824219 14.859375 12.074219 14.929688 12.058594 15.089844 L 12.058594 15.285156 C 12.058594 15.285156 12.003906 15.699219 12.128906 15.714844 L 12.449219 15.714844 C 12.449219 15.714844 12.714844 15.839844 12.679688 16.003906 C 12.679688 16.003906 12.699219 16.234375 12.449219 16.269531 C 12.449219 16.269531 12.21875 16.34375 12.128906 16.324219 C 12.128906 16.324219 12.058594 16.433594 12.039062 16.558594 L 12.023438 18.042969 C 12.023438 18.042969 12.003906 18.203125 12.234375 18.1875 C 12.234375 18.1875 12.589844 18.148438 12.679688 18.347656 C 12.679688 18.347656 12.769531 18.667969 12.589844 18.722656 L 12.449219 18.792969 L 12.164062 18.847656 C 12.164062 18.847656 12.039062 18.867188 12.023438 19.082031 L 12.023438 19.472656 C 12.023438 19.472656 12.039062 19.742188 11.824219 19.742188 L 11.503906 19.761719 C 11.503906 19.761719 11.433594 19.832031 11.273438 19.777344 C 11.273438 19.777344 9.351562 19.8125 9.300781 19.796875 L 9.070312 19.832031 C 9.070312 19.832031 8.820312 20.066406 8.625 19.886719 L 8.464844 19.761719 C 8.464844 19.761719 8.355469 19.777344 8.304688 19.777344 C 8.25 19.761719 6.1875 19.796875 6.1875 19.796875 C 6.1875 19.796875 5.742188 19.851562 5.707031 19.6875 C 5.707031 19.6875 5.652344 19.117188 5.671875 19.042969 C 5.671875 19.042969 5.671875 18.882812 5.5625 18.867188 C 5.5625 18.867188 5.121094 18.847656 5.121094 18.792969 C 5.121094 18.792969 4.886719 18.632812 4.960938 18.453125 C 4.960938 18.453125 5.03125 18.222656 5.28125 18.203125 C 5.28125 18.203125 5.636719 18.257812 5.636719 18.148438 C 5.636719 18.148438 5.652344 18.078125 5.652344 17.972656 C 5.652344 17.972656 5.671875 16.628906 5.671875 16.539062 C 5.671875 16.539062 5.707031 16.359375 5.5625 16.359375 C 5.5625 16.359375 5.402344 16.414062 5.296875 16.34375 C 5.296875 16.34375 5.03125 16.359375 4.976562 16.144531 C 4.976562 16.144531 4.921875 16.003906 4.996094 15.894531 C 4.996094 15.894531 5.121094 15.644531 5.476562 15.734375 C 5.476562 15.734375 5.671875 15.789062 5.707031 15.644531 L 5.6875 15.109375 C 5.6875 15.109375 5.636719 14.964844 5.917969 14.875 C 5.917969 14.875 6.277344 14.984375 6.398438 14.804688 C 6.398438 14.804688 6.523438 14.554688 6.632812 14.730469 C 6.632812 14.730469 6.84375 14.929688 7.433594 14.910156 C 7.433594 14.910156 8.445312 14.839844 8.464844 14.875 C 8.464844 14.875 8.710938 14.910156 8.785156 14.984375 Z M 8.835938 15 " fill-opacity="1" fill-rule="nonzero"/><path fill="#ffffff" d="M 5.777344 13.105469 C 5.777344 13.105469 5.652344 13.496094 5.101562 13.085938 L 3.214844 13.050781 C 3.214844 13.050781 2.964844 13.121094 2.929688 12.871094 C 2.929688 12.871094 2.984375 12.351562 2.949219 12.296875 C 2.949219 12.296875 2.964844 12.15625 2.71875 12.15625 C 2.71875 12.15625 2.34375 12.210938 2.328125 11.871094 C 2.328125 11.871094 2.253906 11.511719 2.789062 11.511719 C 2.789062 11.511719 2.949219 11.582031 2.964844 11.367188 C 2.964844 11.367188 2.949219 9.902344 2.949219 9.777344 C 2.949219 9.777344 3.003906 9.632812 2.734375 9.613281 C 2.734375 9.613281 2.363281 9.6875 2.328125 9.4375 C 2.328125 9.4375 2.308594 9.058594 2.558594 9.042969 C 2.558594 9.042969 2.859375 9.058594 2.914062 8.988281 C 2.914062 8.988281 2.984375 9.023438 2.964844 8.753906 L 2.984375 8.289062 C 2.984375 8.289062 3.019531 8.164062 3.214844 8.183594 C 3.214844 8.183594 3.570312 8.199219 3.605469 8.164062 C 3.605469 8.164062 3.679688 8.058594 3.714844 8.023438 C 3.714844 8.023438 3.890625 8.003906 3.925781 8.058594 C 3.925781 8.058594 4.195312 8.238281 5.226562 8.164062 C 5.226562 8.164062 5.386719 8.164062 5.421875 8.21875 C 5.421875 8.21875 5.617188 8.363281 5.722656 8.199219 C 5.722656 8.199219 5.882812 8.164062 6.398438 8.183594 C 6.398438 8.183594 6.953125 8.328125 7.324219 8.023438 L 7.449219 8.039062 C 7.449219 8.039062 7.609375 8.308594 7.714844 8.21875 C 7.714844 8.21875 8.054688 8.183594 8.109375 8.253906 C 8.109375 8.253906 8.214844 8.414062 8.160156 8.863281 C 8.160156 8.863281 8.089844 9.058594 8.429688 9.058594 C 8.429688 9.058594 8.800781 8.988281 8.75 9.347656 C 8.75 9.347656 8.855469 9.738281 8.234375 9.6875 C 8.234375 9.6875 8.160156 9.792969 8.160156 9.882812 C 8.160156 9.882812 8.144531 11.171875 8.144531 11.316406 C 8.144531 11.316406 8.125 11.511719 8.410156 11.511719 C 8.410156 11.511719 8.765625 11.492188 8.785156 11.816406 C 8.785156 11.816406 8.835938 12.246094 8.304688 12.171875 C 8.304688 12.171875 8.144531 12.191406 8.125 12.296875 L 8.089844 12.871094 C 8.089844 12.871094 8.109375 13.15625 7.789062 13.085938 C 7.734375 13.085938 6.027344 13.121094 5.882812 13.066406 C 5.882812 13.066406 5.8125 13.050781 5.777344 13.105469 " fill-opacity="1" fill-rule="nonzero"/><path fill="#1e1e1e" d="M 12.484375 13.105469 C 12.484375 13.105469 12.359375 13.496094 11.808594 13.085938 L 9.921875 13.03125 C 9.921875 13.03125 9.671875 13.105469 9.636719 12.851562 C 9.636719 12.851562 9.691406 12.335938 9.65625 12.28125 C 9.65625 12.28125 9.671875 12.136719 9.425781 12.136719 C 9.425781 12.136719 9.03125 12.191406 9.03125 11.851562 C 9.03125 11.851562 8.960938 11.492188 9.496094 11.492188 C 9.496094 11.492188 9.65625 11.566406 9.671875 11.351562 C 9.671875 11.351562 9.65625 9.882812 9.65625 9.777344 C 9.65625 9.777344 9.710938 9.632812 9.441406 9.613281 C 9.441406 9.613281 9.070312 9.6875 9.03125 9.453125 C 9.03125 9.453125 9.015625 9.078125 9.265625 9.058594 C 9.265625 9.058594 9.566406 9.078125 9.621094 9.007812 C 9.621094 9.007812 9.691406 9.042969 9.671875 8.773438 L 9.691406 8.308594 C 9.691406 8.308594 9.726562 8.183594 9.921875 8.199219 C 9.921875 8.199219 10.277344 8.21875 10.3125 8.183594 C 10.3125 8.183594 10.386719 8.074219 10.421875 8.039062 C 10.421875 8.039062 10.597656 8.023438 10.632812 8.074219 C 10.632812 8.074219 10.902344 8.253906 11.933594 8.183594 C 11.933594 8.183594 12.09375 8.183594 12.128906 8.238281 C 12.128906 8.238281 12.324219 8.378906 12.429688 8.21875 C 12.429688 8.21875 12.589844 8.183594 13.105469 8.199219 C 13.105469 8.199219 13.660156 8.34375 14.050781 8.039062 L 14.175781 8.058594 C 14.175781 8.058594 14.335938 8.328125 14.441406 8.238281 C 14.441406 8.238281 14.777344 8.199219 14.832031 8.273438 C 14.832031 8.273438 14.9375 8.433594 14.886719 8.882812 C 14.886719 8.882812 14.816406 9.078125 15.152344 9.078125 C 15.152344 9.078125 15.527344 9.007812 15.472656 9.363281 C 15.472656 9.363281 15.578125 9.757812 14.957031 9.703125 C 14.957031 9.703125 14.886719 9.8125 14.886719 9.902344 C 14.886719 9.902344 14.867188 11.1875 14.867188 11.332031 C 14.867188 11.332031 14.851562 11.527344 15.136719 11.527344 C 15.136719 11.527344 15.492188 11.511719 15.507812 11.832031 C 15.507812 11.832031 15.5625 12.261719 15.027344 12.191406 C 15.027344 12.191406 14.867188 12.210938 14.851562 12.316406 L 14.832031 12.890625 C 14.832031 12.890625 14.851562 13.175781 14.53125 13.105469 C 14.476562 13.105469 12.769531 13.140625 12.625 13.085938 C 12.574219 13.066406 12.503906 13.050781 12.484375 13.105469 " fill-opacity="1" fill-rule="nonzero"/><path stroke-linecap="butt" transform="matrix(0.1779, 0, 0, 0.178937, 1.863655, 6.232755)" fill="none" stroke-linejoin="miter" d="M 59.700496 38.408633 C 59.700496 38.408633 58.997854 40.591668 55.901839 38.299481 L 45.296338 37.993857 C 45.296338 37.993857 43.891055 38.408633 43.693437 36.989661 C 43.693437 36.989661 44.000842 34.108055 43.803224 33.80243 C 43.803224 33.80243 43.891055 32.994708 42.507729 32.994708 C 42.507729 32.994708 40.290015 33.300332 40.290015 31.401092 C 40.290015 31.401092 39.894779 29.392701 42.902965 29.392701 C 42.902965 29.392701 43.803224 29.807477 43.891055 28.606808 C 43.891055 28.606808 43.803224 20.398598 43.803224 19.809179 C 43.803224 19.809179 44.11063 19.001456 42.595559 18.892304 C 42.595559 18.892304 40.509591 19.307081 40.290015 17.99726 C 40.290015 17.99726 40.202185 15.901547 41.607469 15.792395 C 41.607469 15.792395 43.298201 15.901547 43.605606 15.508601 C 43.605606 15.508601 44.000842 15.705074 43.891055 14.19878 L 44.000842 11.600969 C 44.000842 11.600969 44.19846 10.902398 45.296338 10.98972 C 45.296338 10.98972 47.294476 11.098871 47.492094 10.902398 C 47.492094 10.902398 47.909288 10.291148 48.106906 10.094675 C 48.106906 10.094675 49.094996 10.007354 49.292614 10.291148 C 49.292614 10.291148 50.807685 11.295344 56.604481 10.902398 C 56.604481 10.902398 57.504741 10.902398 57.702359 11.208023 C 57.702359 11.208023 58.800236 11.993915 59.39309 11.098871 C 59.39309 11.098871 60.29335 10.902398 63.191748 10.98972 C 63.191748 10.98972 66.309721 11.797442 68.505477 10.094675 L 69.208119 10.203827 C 69.208119 10.203827 70.108379 11.710121 70.701233 11.208023 C 70.701233 11.208023 72.589583 10.98972 72.896989 11.404496 C 72.896989 11.404496 73.489843 12.29954 73.204394 14.81003 C 73.204394 14.81003 72.809158 15.901547 74.697508 15.901547 C 74.697508 15.901547 76.805434 15.508601 76.498028 17.495162 C 76.498028 17.495162 77.090882 19.700027 73.59963 19.394402 C 73.59963 19.394402 73.204394 20.005652 73.204394 20.50775 C 73.204394 20.50775 73.094607 27.689934 73.094607 28.497656 C 73.094607 28.497656 73.006776 29.589174 74.609678 29.589174 C 74.609678 29.589174 76.607816 29.501852 76.695646 31.291941 C 76.695646 31.291941 77.003052 33.693279 73.994866 33.300332 C 73.994866 33.300332 73.094607 33.409484 73.006776 33.998903 L 72.896989 37.207964 C 72.896989 37.207964 73.006776 38.801579 71.206257 38.408633 C 70.898851 38.408633 61.303398 38.605106 60.490968 38.299481 C 60.20552 38.19033 59.810284 38.103008 59.700496 38.408633 Z M 59.700496 38.408633 " stroke="#000000" stroke-width="0.219" stroke-opacity="1" stroke-miterlimit="4"/><path fill="#ffffff" d="M 10.347656 8.433594 C 10.347656 8.433594 10.367188 8.667969 10.367188 8.71875 C 10.367188 8.773438 10.332031 11.996094 10.332031 11.996094 C 10.332031 11.996094 10.367188 12.246094 10.152344 12.371094 C 10.152344 12.371094 10.101562 12.386719 10.082031 12.226562 L 10.101562 8.828125 C 10.117188 8.828125 10.136719 8.414062 10.347656 8.433594 " fill-opacity="1" fill-rule="nonzero"/><path stroke-linecap="butt" transform="matrix(0.1779, 0, 0, 0.178937, 1.863655, 6.232755)" fill="none" stroke-linejoin="miter" d="M 47.689712 12.29954 C 47.689712 12.29954 47.7995 13.609361 47.7995 13.893155 C 47.7995 14.19878 47.601882 32.208815 47.601882 32.208815 C 47.601882 32.208815 47.7995 33.605957 46.591834 34.304528 C 46.591834 34.304528 46.306386 34.39185 46.196598 33.496805 L 46.306386 14.504405 C 46.394216 14.504405 46.504004 12.190388 47.689712 12.29954 Z M 47.689712 12.29954 " stroke="#000000" stroke-width="0.231" stroke-opacity="1" stroke-miterlimit="4"/><path fill="#ffffff" d="M 9.976562 12.40625 C 9.976562 12.40625 9.992188 9.222656 9.992188 9.167969 C 9.976562 9.113281 10.011719 9.222656 10.011719 9.222656 C 10.011719 9.222656 9.976562 8.667969 10.117188 8.433594 C 10.117188 8.433594 10.066406 8.238281 9.816406 8.488281 L 9.796875 8.917969 C 9.796875 8.917969 9.796875 9.183594 9.566406 9.167969 C 9.566406 9.167969 9.300781 9.148438 9.175781 9.273438 C 9.175781 9.273438 9.105469 9.523438 9.371094 9.472656 C 9.371094 9.472656 9.78125 9.472656 9.796875 9.632812 L 9.78125 11.351562 C 9.78125 11.351562 9.871094 11.636719 9.550781 11.636719 C 9.550781 11.636719 9.15625 11.617188 9.175781 11.851562 C 9.175781 11.851562 9.246094 12.046875 9.585938 11.996094 C 9.585938 11.996094 9.816406 12.03125 9.816406 12.261719 L 9.816406 12.691406 C 9.816406 12.691406 9.796875 12.871094 10.011719 12.871094 L 11.773438 12.871094 C 11.773438 12.871094 11.863281 12.890625 11.863281 12.765625 C 11.863281 12.765625 11.84375 12.675781 11.71875 12.675781 L 10.242188 12.675781 C 10.242188 12.675781 9.992188 12.746094 9.976562 12.40625 " fill-opacity="1" fill-rule="nonzero"/><path fill="#ffffff" d="M 10.3125 12.386719 C 10.3125 12.386719 10.261719 12.550781 10.4375 12.511719 L 11.59375 12.511719 L 11.914062 12.585938 C 11.914062 12.585938 12.234375 12.511719 11.914062 12.316406 C 11.914062 12.316406 10.882812 12.335938 10.792969 12.296875 C 10.792969 12.296875 10.582031 12.246094 10.527344 12.226562 C 10.527344 12.246094 10.421875 12.210938 10.3125 12.386719 " fill-opacity="1" fill-rule="nonzero"/><path stroke-linecap="butt" transform="matrix(0.1779, 0, 0, 0.178937, 1.863655, 6.232755)" fill="none" stroke-linejoin="miter" d="M 47.492094 34.39185 C 47.492094 34.39185 47.206646 35.308724 48.194736 35.090421 L 54.694173 35.090421 L 56.494693 35.505197 C 56.494693 35.505197 58.295213 35.090421 56.494693 33.998903 C 56.494693 33.998903 50.697898 34.108055 50.192874 33.889752 C 50.192874 33.889752 49.007166 33.605957 48.69976 33.496805 C 48.69976 33.605957 48.106906 33.409484 47.492094 34.39185 Z M 47.492094 34.39185 " stroke="#000000" stroke-width="0.231" stroke-opacity="1" stroke-miterlimit="4"/><path fill="#ffffff" d="M 12.234375 12.550781 C 12.234375 12.550781 12.023438 12.550781 12.039062 12.835938 C 12.039062 12.835938 12.058594 13.050781 12.289062 13.050781 C 12.289062 13.050781 12.484375 13.015625 12.464844 12.78125 C 12.464844 12.800781 12.34375 12.511719 12.234375 12.550781 " fill-opacity="1" fill-rule="nonzero"/><path fill="#ffffff" d="M 12.394531 12.441406 C 12.394531 12.441406 12.503906 12.335938 12.554688 12.335938 C 12.554688 12.335938 13.675781 12.441406 13.871094 12.296875 C 13.871094 12.296875 14.050781 12.261719 14.085938 12.296875 C 14.085938 12.296875 14.246094 12.441406 14.246094 12.511719 C 14.246094 12.511719 14.226562 12.621094 14.03125 12.550781 C 14.03125 12.550781 12.769531 12.566406 12.699219 12.566406 C 12.714844 12.566406 12.359375 12.640625 12.394531 12.441406 " fill-opacity="1" fill-rule="nonzero"/><path stroke-linecap="butt" transform="matrix(0.1779, 0, 0, 0.178937, 1.863655, 6.232755)" fill="none" stroke-linejoin="miter" d="M 59.195472 34.697474 C 59.195472 34.697474 59.810284 34.108055 60.095732 34.108055 C 60.095732 34.108055 66.397551 34.697474 67.495429 33.889752 C 67.495429 33.889752 68.505477 33.693279 68.703095 33.889752 C 68.703095 33.889752 69.603355 34.697474 69.603355 35.090421 C 69.603355 35.090421 69.493567 35.70167 68.395689 35.308724 C 68.395689 35.308724 61.303398 35.396046 60.908162 35.396046 C 60.995992 35.396046 58.997854 35.810822 59.195472 34.697474 Z M 59.195472 34.697474 " stroke="#000000" stroke-width="0.231" stroke-opacity="1" stroke-miterlimit="4"/><path fill="#ffffff" d="M 12.539062 12.800781 C 12.539062 12.800781 12.539062 12.710938 12.699219 12.710938 L 14.28125 12.691406 C 14.28125 12.691406 14.421875 12.765625 14.421875 12.496094 C 14.421875 12.496094 14.476562 11.261719 14.496094 9.902344 C 14.496094 9.488281 14.511719 9.078125 14.496094 8.683594 C 14.496094 8.683594 14.457031 8.523438 14.421875 8.488281 C 14.421875 8.488281 14.421875 8.308594 14.617188 8.378906 C 14.617188 8.378906 14.777344 8.398438 14.742188 8.648438 L 14.761719 9.042969 C 14.761719 9.042969 14.726562 9.222656 15.027344 9.167969 C 15.027344 9.167969 15.332031 9.222656 15.347656 9.328125 C 15.347656 9.328125 15.4375 9.5625 15.082031 9.523438 L 14.816406 9.523438 C 14.816406 9.523438 14.707031 9.597656 14.742188 9.722656 L 14.671875 11.386719 C 14.671875 11.386719 14.65625 11.671875 14.921875 11.65625 C 14.921875 11.65625 15.207031 11.636719 15.257812 11.726562 C 15.257812 11.726562 15.457031 12.011719 15.027344 11.996094 C 15.027344 11.996094 14.761719 11.976562 14.707031 12.03125 C 14.707031 12.03125 14.65625 12.082031 14.636719 12.621094 C 14.636719 12.621094 14.65625 12.941406 14.421875 12.90625 C 14.421875 12.90625 12.859375 12.925781 12.714844 12.890625 C 12.714844 12.890625 12.574219 12.925781 12.539062 12.800781 " fill-opacity="1" fill-rule="nonzero"/><path fill="#ffffff" d="M 10.527344 8.34375 L 10.492188 11.976562 C 10.492188 11.976562 10.472656 12.136719 10.757812 12.171875 C 10.757812 12.171875 11.078125 12.210938 11.167969 12.171875 C 11.167969 12.171875 11.382812 12.15625 11.933594 12.191406 C 11.933594 12.191406 12.074219 12.335938 12.074219 12.15625 C 12.074219 12.15625 12.164062 9.222656 12.128906 8.59375 C 12.128906 8.59375 12.109375 8.328125 11.933594 8.328125 C 11.933594 8.328125 11.078125 8.398438 11.007812 8.328125 L 10.667969 8.238281 C 10.632812 8.238281 10.507812 8.253906 10.527344 8.34375 " fill-opacity="1" fill-rule="nonzero"/><path fill="#ffffff" d="M 12.289062 8.523438 C 12.289062 8.523438 12.253906 10.222656 12.269531 10.292969 L 12.253906 11.726562 L 12.199219 12.226562 C 12.199219 12.226562 12.269531 12.335938 12.324219 12.261719 C 12.324219 12.261719 12.679688 12.171875 12.910156 12.210938 C 12.910156 12.210938 13.640625 12.28125 13.78125 12.15625 C 13.78125 12.15625 13.890625 12.210938 13.925781 12.03125 C 13.925781 12.03125 13.960938 8.863281 13.941406 8.808594 C 13.941406 8.808594 13.980469 8.363281 13.960938 8.308594 C 13.960938 8.308594 13.941406 8.199219 13.765625 8.289062 C 13.765625 8.289062 13.78125 8.378906 12.714844 8.34375 C 12.714844 8.34375 12.324219 8.34375 12.289062 8.523438 " fill-opacity="1" fill-rule="nonzero"/><path fill="#ffffff" d="M 14.085938 8.46875 L 14.066406 12.046875 C 14.066406 12.046875 14.15625 12.371094 14.300781 12.335938 C 14.300781 12.335938 14.316406 12.261719 14.335938 12.15625 L 14.386719 8.753906 C 14.386719 8.738281 14.28125 8.199219 14.085938 8.46875 " fill-opacity="1" fill-rule="nonzero"/><path stroke-linecap="butt" transform="matrix(0.1779, 0, 0, 0.178937, 1.863655, 6.232755)" fill="none" stroke-linejoin="miter" d="M 68.703095 12.496013 L 68.593307 32.49261 C 68.593307 32.49261 69.098331 34.304528 69.910761 34.108055 C 69.910761 34.108055 69.998591 33.693279 70.108379 33.103859 L 70.393827 14.089629 C 70.393827 14.002307 69.800973 10.98972 68.703095 12.496013 Z M 68.703095 12.496013 " stroke="#000000" stroke-width="0.231" stroke-opacity="1" stroke-miterlimit="4"/><path fill="#1e1e1e" d="M 12.699219 9.542969 C 12.664062 9.453125 12.894531 9.4375 12.894531 9.4375 L 13 9.453125 C 13.070312 9.4375 13.160156 9.472656 13.160156 9.472656 C 13.230469 9.597656 13.105469 9.667969 13.105469 9.667969 L 13.070312 9.828125 C 13.054688 9.953125 13.070312 11.027344 13.070312 11.027344 C 13.089844 11.082031 13.179688 11.1875 13.179688 11.1875 C 13.179688 11.296875 13.054688 11.261719 13.054688 11.261719 L 12.734375 11.277344 C 12.625 11.261719 12.664062 11.152344 12.664062 11.152344 C 12.769531 11.101562 12.804688 10.886719 12.804688 10.886719 L 12.804688 9.757812 Z M 12.699219 9.542969 " fill-opacity="1" fill-rule="nonzero"/><path fill="#1e1e1e" d="M 11.1875 10.597656 L 11.167969 10.957031 L 11.273438 11.117188 C 11.347656 11.207031 11.222656 11.277344 11.222656 11.277344 L 10.867188 11.242188 C 10.792969 11.207031 10.867188 11.101562 10.867188 11.101562 C 10.953125 11.046875 10.972656 10.902344 10.972656 10.902344 L 10.953125 10.242188 L 10.972656 9.757812 C 10.972656 9.703125 10.882812 9.597656 10.882812 9.597656 C 10.8125 9.578125 10.828125 9.488281 10.828125 9.488281 C 10.847656 9.4375 11.042969 9.472656 11.042969 9.472656 L 11.523438 9.472656 C 11.96875 9.613281 11.914062 9.953125 11.914062 9.953125 C 11.949219 10.277344 11.59375 10.417969 11.59375 10.417969 L 11.578125 10.597656 L 11.898438 11.117188 C 11.949219 11.171875 11.949219 11.207031 11.949219 11.207031 C 11.898438 11.332031 11.71875 11.207031 11.71875 11.207031 L 11.292969 10.5625 C 11.257812 10.507812 11.1875 10.597656 11.1875 10.597656 M 11.203125 9.703125 C 11.222656 9.953125 11.222656 10.292969 11.222656 10.292969 C 11.433594 10.457031 11.558594 10.222656 11.558594 10.222656 C 11.84375 9.953125 11.558594 9.703125 11.503906 9.632812 C 11.453125 9.5625 11.238281 9.613281 11.238281 9.613281 Z M 11.203125 9.703125 " fill-opacity="1" fill-rule="nonzero"/><path fill="#1e1e1e" d="M 8.835938 15 C 8.835938 15 8.910156 14.964844 8.945312 14.910156 C 8.945312 14.910156 9.175781 14.894531 9.210938 14.859375 L 9.957031 14.910156 C 9.957031 14.910156 10.6875 14.964844 11.007812 14.730469 C 11.007812 14.730469 11.113281 14.730469 11.203125 14.769531 C 11.203125 14.769531 11.363281 14.804688 11.398438 14.875 L 11.824219 14.859375 C 11.824219 14.859375 12.074219 14.929688 12.058594 15.089844 L 12.058594 15.285156 C 12.058594 15.285156 12.003906 15.699219 12.128906 15.714844 L 12.449219 15.714844 C 12.449219 15.714844 12.714844 15.839844 12.679688 16.003906 C 12.679688 16.003906 12.699219 16.234375 12.449219 16.269531 C 12.449219 16.269531 12.21875 16.34375 12.128906 16.324219 C 12.128906 16.324219 12.058594 16.433594 12.039062 16.558594 L 12.023438 18.042969 C 12.023438 18.042969 12.003906 18.203125 12.234375 18.1875 C 12.234375 18.1875 12.589844 18.148438 12.679688 18.347656 C 12.679688 18.347656 12.769531 18.667969 12.589844 18.722656 L 12.449219 18.792969 L 12.164062 18.847656 C 12.164062 18.847656 12.039062 18.867188 12.023438 19.082031 L 12.023438 19.472656 C 12.023438 19.472656 12.039062 19.742188 11.824219 19.742188 L 11.503906 19.761719 C 11.503906 19.761719 11.433594 19.832031 11.273438 19.777344 C 11.273438 19.777344 9.351562 19.8125 9.300781 19.796875 L 9.070312 19.832031 C 9.070312 19.832031 8.820312 20.066406 8.625 19.886719 L 8.464844 19.761719 C 8.464844 19.761719 8.355469 19.777344 8.304688 19.777344 C 8.25 19.761719 6.1875 19.796875 6.1875 19.796875 C 6.1875 19.796875 5.742188 19.851562 5.707031 19.6875 C 5.707031 19.6875 5.652344 19.117188 5.671875 19.042969 C 5.671875 19.042969 5.671875 18.882812 5.5625 18.867188 C 5.5625 18.867188 5.121094 18.847656 5.121094 18.792969 C 5.121094 18.792969 4.886719 18.632812 4.960938 18.453125 C 4.960938 18.453125 5.03125 18.222656 5.28125 18.203125 C 5.28125 18.203125 5.636719 18.257812 5.636719 18.148438 C 5.636719 18.148438 5.652344 18.078125 5.652344 17.972656 C 5.652344 17.972656 5.671875 16.628906 5.671875 16.539062 C 5.671875 16.539062 5.707031 16.359375 5.5625 16.359375 C 5.5625 16.359375 5.402344 16.414062 5.296875 16.34375 C 5.296875 16.34375 5.03125 16.359375 4.976562 16.144531 C 4.976562 16.144531 4.921875 16.003906 4.996094 15.894531 C 4.996094 15.894531 5.121094 15.644531 5.476562 15.734375 C 5.476562 15.734375 5.671875 15.789062 5.707031 15.644531 L 5.6875 15.109375 C 5.6875 15.109375 5.636719 14.964844 5.917969 14.875 C 5.917969 14.875 6.277344 14.984375 6.398438 14.804688 C 6.398438 14.804688 6.523438 14.554688 6.632812 14.730469 C 6.632812 14.730469 6.84375 14.929688 7.433594 14.910156 C 7.433594 14.910156 8.445312 14.839844 8.464844 14.875 C 8.464844 14.875 8.710938 14.910156 8.785156 14.984375 Z M 8.835938 15 " fill-opacity="1" fill-rule="nonzero"/><path stroke-linecap="butt" transform="matrix(0.1779, 0, 0, 0.178937, 1.863655, 6.232755)" fill="none" stroke-linejoin="miter" d="M 39.192137 48.909029 C 39.192137 48.909029 39.609331 48.690726 39.806949 48.406931 C 39.806949 48.406931 41.102445 48.29778 41.300063 48.101306 L 45.493956 48.406931 C 45.493956 48.406931 49.60002 48.690726 51.400539 47.402735 C 51.400539 47.402735 51.993394 47.402735 52.498417 47.599209 C 52.498417 47.599209 53.398677 47.795682 53.596295 48.210458 L 55.989669 48.101306 C 55.989669 48.101306 57.394953 48.494253 57.307122 49.389297 L 57.307122 50.502644 C 57.307122 50.502644 56.999717 52.794831 57.702359 52.903982 L 59.502878 52.903982 C 59.502878 52.903982 60.995992 53.602554 60.798374 54.497598 C 60.798374 54.497598 60.908162 55.807418 59.502878 56.003891 C 59.502878 56.003891 58.207382 56.396838 57.702359 56.309516 C 57.702359 56.309516 57.307122 56.898936 57.197335 57.597507 L 57.109504 66.00219 C 57.109504 66.00219 56.999717 66.897234 58.295213 66.809912 C 58.295213 66.809912 60.29335 66.591609 60.798374 67.704957 C 60.798374 67.704957 61.303398 69.495045 60.29335 69.80067 L 59.502878 70.193616 L 57.899977 70.499241 C 57.899977 70.499241 57.197335 70.608392 57.109504 71.809061 L 57.109504 73.992096 C 57.109504 73.992096 57.197335 75.49839 55.989669 75.49839 L 54.189149 75.607542 C 54.189149 75.607542 53.793913 76.000488 52.893653 75.694863 C 52.893653 75.694863 42.090535 75.891336 41.805087 75.804015 L 40.509591 76.109639 C 40.509591 76.109639 39.104307 77.39763 38.006429 76.393434 L 37.106169 75.694863 C 37.106169 75.694863 36.491358 75.804015 36.205909 75.804015 C 35.898504 75.694863 24.304913 75.891336 24.304913 75.891336 C 24.304913 75.891336 21.801751 76.196961 21.604133 75.301917 C 21.604133 75.301917 21.296728 72.092856 21.406515 71.69991 C 21.406515 71.69991 21.406515 70.804866 20.791704 70.695714 C 20.791704 70.695714 18.3105 70.608392 18.3105 70.302768 C 18.3105 70.302768 16.993046 69.298572 17.41024 68.403528 C 17.41024 68.403528 17.805476 67.093707 19.21076 67.006386 C 19.21076 67.006386 21.208897 67.29018 21.208897 66.700761 C 21.208897 66.700761 21.296728 66.307814 21.296728 65.696565 C 21.296728 65.696565 21.406515 58.208756 21.406515 57.706658 C 21.406515 57.706658 21.604133 56.702463 20.791704 56.702463 C 20.791704 56.702463 19.891444 57.008087 19.29859 56.593311 C 19.29859 56.593311 17.805476 56.702463 17.49807 55.501794 C 17.49807 55.501794 17.190664 54.694071 17.607858 54.104651 C 17.607858 54.104651 18.3105 52.707509 20.308638 53.209607 C 20.308638 53.209607 21.406515 53.493402 21.604133 52.707509 L 21.494346 49.694922 C 21.494346 49.694922 21.208897 48.909029 22.789842 48.406931 C 22.789842 48.406931 24.809937 48.996351 25.490621 47.992155 C 25.490621 47.992155 26.193263 46.595013 26.808075 47.599209 C 26.808075 47.599209 27.993783 48.690726 31.309374 48.603404 C 31.309374 48.603404 36.996381 48.210458 37.106169 48.406931 C 37.106169 48.406931 38.489495 48.603404 38.906689 48.996351 Z M 39.192137 48.909029 " stroke="#000000" stroke-width="0.219" stroke-opacity="1" stroke-miterlimit="4"/><path fill="#ffffff" d="M 9.140625 19.4375 C 9.140625 19.4375 9.28125 19.367188 9.371094 19.402344 C 9.460938 19.421875 10.777344 19.382812 10.777344 19.382812 C 10.777344 19.382812 11.347656 19.4375 11.433594 19.347656 L 11.578125 19.296875 C 11.578125 19.296875 11.628906 19.222656 11.628906 19.132812 C 11.628906 19.042969 11.648438 18.742188 11.648438 18.742188 L 11.683594 18.632812 C 11.683594 18.632812 11.664062 18.527344 11.683594 15.5 C 11.683594 15.5 11.71875 15.269531 11.578125 15.125 C 11.578125 15.125 11.578125 15.035156 11.628906 15.054688 C 11.683594 15.070312 11.648438 15.070312 11.648438 15.070312 C 11.648438 15.070312 11.84375 15.019531 11.878906 15.089844 C 11.878906 15.089844 11.96875 15.359375 11.898438 15.519531 C 11.898438 15.519531 11.878906 15.839844 12.039062 15.839844 C 12.039062 15.839844 12.109375 15.914062 12.234375 15.878906 C 12.234375 15.878906 12.519531 15.914062 12.519531 16.003906 C 12.519531 16.003906 12.519531 16.199219 12.324219 16.164062 L 12.058594 16.179688 C 12.058594 16.179688 11.878906 16.21875 11.898438 16.433594 C 11.914062 16.648438 11.878906 18.1875 11.878906 18.1875 C 11.878906 18.1875 11.878906 18.363281 12.164062 18.363281 C 12.164062 18.363281 12.519531 18.347656 12.519531 18.453125 C 12.519531 18.453125 12.609375 18.6875 12.359375 18.6875 C 12.359375 18.6875 11.878906 18.667969 11.914062 18.8125 C 11.914062 18.8125 11.878906 19.132812 11.863281 19.1875 C 11.863281 19.1875 11.914062 19.457031 11.84375 19.492188 C 11.84375 19.492188 11.808594 19.636719 11.503906 19.617188 C 11.503906 19.617188 9.566406 19.597656 9.265625 19.636719 C 9.265625 19.617188 9.085938 19.597656 9.140625 19.4375 " fill-opacity="1" fill-rule="nonzero"/><path fill="#ffffff" d="M 8.785156 19.222656 C 8.785156 19.222656 8.980469 19.257812 8.980469 19.4375 C 8.980469 19.617188 8.996094 19.722656 8.871094 19.742188 C 8.765625 19.761719 8.640625 19.722656 8.605469 19.582031 C 8.570312 19.4375 8.625 19.257812 8.785156 19.222656 " fill-opacity="1" fill-rule="nonzero"/><path fill="#ffffff" d="M 9.015625 19.132812 C 9.015625 19.132812 9.210938 18.992188 9.300781 19.027344 C 9.300781 19.027344 10.332031 19.097656 10.632812 19.042969 C 10.953125 18.992188 10.757812 19.027344 10.757812 19.027344 C 10.757812 19.027344 11.027344 19.027344 11.113281 18.917969 C 11.113281 18.917969 11.1875 18.902344 11.238281 18.972656 L 11.398438 19.152344 C 11.398438 19.152344 11.417969 19.257812 11.222656 19.257812 C 11.222656 19.257812 9.390625 19.257812 9.335938 19.277344 C 9.316406 19.277344 8.980469 19.332031 9.015625 19.132812 " fill-opacity="1" fill-rule="nonzero"/><path stroke-linecap="butt" transform="matrix(0.1779, 0, 0, 0.178937, 1.863655, 6.232755)" fill="none" stroke-linejoin="miter" d="M 40.202185 72.092856 C 40.202185 72.092856 41.300063 71.306964 41.805087 71.503437 C 41.805087 71.503437 47.601882 71.896383 49.292614 71.590758 C 51.093134 71.306964 49.995256 71.503437 49.995256 71.503437 C 49.995256 71.503437 51.510327 71.503437 51.993394 70.892187 C 51.993394 70.892187 52.410587 70.804866 52.696035 71.197812 L 53.596295 72.202008 C 53.596295 72.202008 53.706083 72.791427 52.608205 72.791427 C 52.608205 72.791427 42.31011 72.791427 42.002705 72.900579 C 41.892917 72.900579 40.004567 73.206204 40.202185 72.092856 Z M 40.202185 72.092856 " stroke="#000000" stroke-width="0.231" stroke-opacity="1" stroke-miterlimit="4"/><path fill="#ffffff" d="M 6.347656 15.125 C 6.347656 15.125 6.417969 15.125 6.417969 15.269531 L 6.398438 18.6875 C 6.398438 18.6875 6.4375 18.917969 6.238281 19.0625 C 6.238281 19.0625 6.132812 19.1875 6.132812 18.992188 L 6.1875 15.5 C 6.167969 15.484375 6.1875 15.234375 6.347656 15.125 " fill-opacity="1" fill-rule="nonzero"/><path stroke-linecap="butt" transform="matrix(0.1779, 0, 0, 0.178937, 1.863655, 6.232755)" fill="none" stroke-linejoin="miter" d="M 25.205173 49.694922 C 25.205173 49.694922 25.600409 49.694922 25.600409 50.502644 L 25.490621 69.604197 C 25.490621 69.604197 25.710197 70.892187 24.590361 71.69991 C 24.590361 71.69991 23.997507 72.398481 23.997507 71.306964 L 24.304913 51.790635 C 24.195125 51.703313 24.304913 50.306171 25.205173 49.694922 Z M 25.205173 49.694922 " stroke="#000000" stroke-width="0.231" stroke-opacity="1" stroke-miterlimit="4"/><path fill="#ffffff" d="M 6.167969 15.144531 C 6.167969 15.144531 6.027344 15.394531 6.042969 15.449219 L 6.027344 16.199219 C 6.027344 16.199219 6.007812 16.683594 6.027344 16.738281 C 6.042969 16.789062 6.007812 18.222656 6.007812 18.222656 C 6.007812 18.222656 5.992188 18.488281 6.007812 18.578125 L 6.007812 19.1875 C 6.007812 19.1875 5.992188 19.457031 6.1875 19.382812 C 6.1875 19.382812 8.160156 19.332031 8.285156 19.367188 C 8.285156 19.367188 8.464844 19.402344 8.394531 19.492188 C 8.394531 19.492188 8.394531 19.5625 8.269531 19.546875 C 8.269531 19.546875 7.34375 19.636719 6.488281 19.597656 C 6.488281 19.597656 5.917969 19.636719 5.882812 19.5625 C 5.882812 19.5625 5.796875 19.546875 5.796875 19.222656 C 5.796875 19.222656 5.796875 18.917969 5.777344 18.867188 C 5.777344 18.867188 5.796875 18.703125 5.511719 18.667969 C 5.511719 18.667969 5.121094 18.742188 5.101562 18.507812 C 5.101562 18.507812 5.15625 18.347656 5.546875 18.363281 C 5.546875 18.363281 5.832031 18.417969 5.777344 18.1875 L 5.8125 16.503906 C 5.8125 16.503906 5.847656 16.21875 5.652344 16.199219 C 5.652344 16.199219 5.476562 16.179688 5.421875 16.21875 C 5.421875 16.21875 5.101562 16.21875 5.121094 16.019531 C 5.121094 16.019531 5.226562 15.824219 5.5625 15.859375 C 5.5625 15.859375 5.8125 15.914062 5.832031 15.625 C 5.832031 15.625 5.8125 15.054688 5.957031 15.019531 C 5.957031 15.054688 6.238281 15.054688 6.167969 15.144531 " fill-opacity="1" fill-rule="nonzero"/><path stroke-linecap="butt" transform="matrix(0.1779, 0, 0, 0.178937, 1.863655, 6.232755)" fill-opacity="1" fill="#ffffff" fill-rule="nonzero" stroke-linejoin="miter" d="M 26.105433 70.695714 C 26.105433 70.695714 27.005693 71.590758 28.410976 71.590758 L 36.996381 71.69991 C 36.996381 71.69991 38.006429 71.809061 37.896641 72.289329 C 37.896641 72.289329 37.808811 73.097052 36.601145 72.791427 L 26.193263 72.704106 L 25.095385 72.791427 C 25.095385 72.791427 24.304913 72.704106 25.490621 71.197812 Z M 26.105433 70.695714 " stroke="#000000" stroke-width="0.231" stroke-opacity="1" stroke-miterlimit="4"/><path stroke-linecap="butt" transform="matrix(0.1779, 0, 0, 0.178937, 1.863655, 6.232755)" fill-opacity="1" fill="#ffffff" fill-rule="nonzero" stroke-linejoin="miter" d="M 52.608205 69.909821 C 52.608205 69.909821 53.398677 71.394285 53.706083 71.590758 C 53.706083 71.590758 54.408725 72.398481 54.189149 71.001339 L 54.298937 52.794831 C 54.298937 52.794831 54.101319 52.205411 54.298937 51.201216 L 53.508465 49.804073 C 53.508465 49.804073 52.696035 49.192824 52.696035 50.19702 L 52.608205 69.604197 Z M 52.608205 69.909821 " stroke="#000000" stroke-width="0.231" stroke-opacity="1" stroke-miterlimit="4"/><path fill="#ffffff" d="M 8.730469 17.183594 C 8.730469 17.183594 8.75 17.453125 8.710938 17.71875 C 8.695312 17.863281 8.765625 18.527344 8.695312 18.867188 C 8.695312 18.867188 8.675781 18.972656 8.445312 18.882812 C 8.445312 18.882812 7.003906 18.917969 6.96875 18.867188 C 6.96875 18.867188 6.578125 18.882812 6.542969 18.667969 C 6.542969 18.667969 6.597656 17.113281 6.558594 17.058594 C 6.558594 17.058594 6.542969 16.21875 6.558594 16.128906 C 6.558594 16.128906 6.597656 15.339844 6.578125 15.25 C 6.578125 15.25 6.597656 15.070312 6.558594 14.984375 C 6.558594 14.984375 6.558594 14.875 6.757812 14.929688 C 6.757812 14.929688 6.828125 15.054688 7.199219 15 C 7.199219 15 7.46875 15.035156 7.734375 15.019531 C 7.734375 15.019531 8.304688 14.964844 8.445312 15.019531 C 8.445312 15.019531 8.675781 14.964844 8.730469 15.214844 L 8.710938 15.914062 L 8.785156 16.144531 L 8.855469 16.09375 L 8.890625 15.914062 L 8.910156 15.160156 C 8.910156 15.160156 8.960938 15.019531 9.140625 15 C 9.140625 15 9.425781 14.964844 9.460938 14.984375 C 9.496094 15 10.117188 15.035156 10.277344 15 C 10.4375 14.964844 10.472656 15.109375 10.988281 14.859375 C 10.988281 14.859375 11.132812 14.875 11.132812 14.964844 C 11.132812 14.964844 11.078125 15.929688 11.132812 16.109375 C 11.132812 16.109375 11.132812 17.882812 11.097656 18.007812 L 11.113281 18.578125 C 11.113281 18.578125 11.132812 18.828125 10.742188 18.847656 C 10.742188 18.847656 10.988281 18.882812 9.441406 18.828125 C 9.441406 18.828125 9.191406 18.8125 8.925781 18.9375 C 8.925781 18.9375 8.871094 18.917969 8.871094 18.777344 C 8.871094 18.777344 8.925781 18.238281 8.871094 17.71875 L 8.855469 17.148438 Z M 8.730469 17.183594 " fill-opacity="1" fill-rule="nonzero"/><path fill="#1e1e1e" d="M 7.714844 16.378906 C 7.714844 16.378906 7.753906 17.21875 7.714844 17.328125 L 7.699219 17.503906 C 7.699219 17.503906 7.753906 17.632812 7.804688 17.667969 C 7.804688 17.667969 7.859375 17.828125 7.734375 17.808594 C 7.734375 17.808594 7.449219 17.792969 7.378906 17.792969 C 7.378906 17.792969 7.21875 17.792969 7.378906 17.59375 C 7.378906 17.59375 7.433594 17.523438 7.414062 17.308594 C 7.414062 17.308594 7.414062 16.359375 7.433594 16.308594 C 7.433594 16.308594 7.449219 16.179688 7.378906 16.144531 L 7.234375 16.164062 L 7.074219 16.324219 C 7.074219 16.324219 7.039062 16.484375 6.96875 16.308594 L 6.96875 16.21875 L 7.074219 15.949219 L 7.148438 15.929688 C 7.148438 15.929688 7.253906 16.003906 7.34375 16.019531 L 7.875 16.019531 L 8.074219 15.929688 C 8.074219 15.929688 8.144531 15.949219 8.125 16.039062 C 8.125 16.039062 8.160156 16.308594 8.019531 16.324219 C 8.019531 16.324219 7.929688 16.289062 7.875 16.164062 C 7.875 16.199219 7.734375 16.128906 7.714844 16.378906 " fill-opacity="1" fill-rule="nonzero"/><path fill="#1e1e1e" d="M 10.207031 16.074219 C 10.207031 16.074219 9.78125 16.039062 9.761719 16.503906 C 9.761719 16.503906 9.710938 16.824219 10.1875 17.023438 C 10.1875 17.023438 10.546875 17.183594 10.507812 17.398438 C 10.507812 17.398438 10.457031 17.792969 10.101562 17.59375 C 10.101562 17.59375 9.921875 17.503906 9.941406 17.398438 C 9.941406 17.398438 9.886719 17.273438 9.816406 17.292969 C 9.816406 17.292969 9.746094 17.308594 9.78125 17.683594 C 9.78125 17.683594 9.78125 17.828125 9.941406 17.683594 L 10.027344 17.703125 C 10.027344 17.703125 10.332031 17.953125 10.597656 17.648438 C 10.597656 17.648438 10.882812 17.378906 10.667969 17.078125 C 10.667969 17.078125 10.527344 16.84375 10.261719 16.738281 C 10.261719 16.738281 10.011719 16.628906 9.957031 16.433594 C 9.957031 16.433594 10.027344 16.09375 10.332031 16.269531 C 10.332031 16.269531 10.4375 16.414062 10.507812 16.433594 C 10.507812 16.433594 10.597656 16.433594 10.582031 16.234375 L 10.5625 16.074219 C 10.5625 16.074219 10.546875 15.949219 10.386719 16.074219 C 10.386719 16.074219 10.242188 16.128906 10.207031 16.074219 " fill-opacity="1" fill-rule="nonzero"/><path fill="#1e1e1e" d="M 8.835938 15.839844 C 8.910156 15.894531 8.925781 16.019531 8.925781 16.019531 C 9.15625 16.628906 9.335938 17.488281 9.335938 17.488281 C 9.390625 17.59375 9.496094 17.683594 9.496094 17.683594 C 9.691406 17.757812 9.496094 17.808594 9.496094 17.808594 C 9.425781 17.847656 9.15625 17.792969 9.15625 17.792969 C 9.015625 17.773438 9.085938 17.71875 9.085938 17.71875 C 9.140625 17.667969 9.105469 17.433594 9.105469 17.433594 C 9.085938 17.34375 8.996094 17.203125 8.996094 17.203125 C 8.945312 17.183594 8.871094 17.273438 8.871094 17.273438 C 8.871094 17.273438 8.75 17.328125 8.730469 17.273438 C 8.710938 17.21875 8.640625 17.183594 8.640625 17.183594 C 8.5 17.183594 8.445312 17.523438 8.445312 17.523438 C 8.515625 17.808594 8.445312 17.757812 8.445312 17.757812 C 8.375 17.847656 8.160156 17.773438 8.160156 17.773438 C 8.054688 17.757812 8.125 17.667969 8.125 17.667969 C 8.25 17.648438 8.285156 17.503906 8.285156 17.503906 C 8.339844 17.433594 8.695312 15.949219 8.695312 15.949219 C 8.730469 15.914062 8.75 15.789062 8.835938 15.839844 M 8.660156 16.59375 C 8.640625 16.648438 8.570312 16.96875 8.570312 16.96875 L 8.640625 17.078125 C 8.640625 17.078125 8.820312 17.09375 8.890625 17.09375 C 8.960938 17.09375 8.960938 17.039062 8.960938 16.988281 C 8.960938 16.933594 8.835938 16.59375 8.835938 16.59375 L 8.785156 16.523438 Z M 8.660156 16.59375 " fill-opacity="1" fill-rule="nonzero"/><path fill="#1e1e1e" d="M 5.777344 13.105469 C 5.777344 13.105469 5.652344 13.496094 5.101562 13.085938 L 3.214844 13.050781 C 3.214844 13.050781 2.964844 13.121094 2.929688 12.871094 C 2.929688 12.871094 2.984375 12.351562 2.949219 12.296875 C 2.949219 12.296875 2.964844 12.15625 2.71875 12.15625 C 2.71875 12.15625 2.34375 12.210938 2.328125 11.871094 C 2.328125 11.871094 2.253906 11.511719 2.789062 11.511719 C 2.789062 11.511719 2.949219 11.582031 2.964844 11.367188 C 2.964844 11.367188 2.949219 9.902344 2.949219 9.777344 C 2.949219 9.777344 3.003906 9.632812 2.734375 9.613281 C 2.734375 9.613281 2.363281 9.6875 2.328125 9.4375 C 2.328125 9.4375 2.308594 9.058594 2.558594 9.042969 C 2.558594 9.042969 2.859375 9.058594 2.914062 8.988281 C 2.914062 8.988281 2.984375 9.023438 2.964844 8.753906 L 2.984375 8.289062 C 2.984375 8.289062 3.019531 8.164062 3.214844 8.183594 C 3.214844 8.183594 3.570312 8.199219 3.605469 8.164062 C 3.605469 8.164062 3.679688 8.058594 3.714844 8.023438 C 3.714844 8.023438 3.890625 8.003906 3.925781 8.058594 C 3.925781 8.058594 4.195312 8.238281 5.226562 8.164062 C 5.226562 8.164062 5.386719 8.164062 5.421875 8.21875 C 5.421875 8.21875 5.617188 8.363281 5.722656 8.199219 C 5.722656 8.199219 5.882812 8.164062 6.398438 8.183594 C 6.398438 8.183594 6.953125 8.328125 7.324219 8.023438 L 7.449219 8.039062 C 7.449219 8.039062 7.609375 8.308594 7.714844 8.21875 C 7.714844 8.21875 8.054688 8.183594 8.109375 8.253906 C 8.109375 8.253906 8.214844 8.414062 8.160156 8.863281 C 8.160156 8.863281 8.089844 9.058594 8.429688 9.058594 C 8.429688 9.058594 8.800781 8.988281 8.75 9.347656 C 8.75 9.347656 8.855469 9.738281 8.234375 9.6875 C 8.234375 9.6875 8.160156 9.792969 8.160156 9.882812 C 8.160156 9.882812 8.144531 11.171875 8.144531 11.316406 C 8.144531 11.316406 8.125 11.511719 8.410156 11.511719 C 8.410156 11.511719 8.765625 11.492188 8.785156 11.816406 C 8.785156 11.816406 8.835938 12.246094 8.304688 12.171875 C 8.304688 12.171875 8.144531 12.191406 8.125 12.296875 L 8.089844 12.871094 C 8.089844 12.871094 8.109375 13.15625 7.789062 13.085938 C 7.734375 13.085938 6.027344 13.121094 5.882812 13.066406 C 5.882812 13.066406 5.8125 13.050781 5.777344 13.105469 " fill-opacity="1" fill-rule="nonzero"/><path stroke-linecap="butt" transform="matrix(0.1779, 0, 0, 0.178937, 1.863655, 6.232755)" fill="none" stroke-linejoin="miter" d="M 21.999369 38.408633 C 21.999369 38.408633 21.296728 40.591668 18.200712 38.299481 L 7.595212 38.103008 C 7.595212 38.103008 6.189928 38.495955 5.99231 37.098812 C 5.99231 37.098812 6.299716 34.195377 6.102098 33.889752 C 6.102098 33.889752 6.189928 33.103859 4.806602 33.103859 C 4.806602 33.103859 2.698676 33.409484 2.610846 31.510244 C 2.610846 31.510244 2.193652 29.501852 5.201838 29.501852 C 5.201838 29.501852 6.102098 29.894799 6.189928 28.69413 C 6.189928 28.69413 6.102098 20.50775 6.102098 19.809179 C 6.102098 19.809179 6.409503 19.001456 4.894432 18.892304 C 4.894432 18.892304 2.808464 19.307081 2.610846 17.909939 C 2.610846 17.909939 2.501058 15.792395 3.906342 15.705074 C 3.906342 15.705074 5.597074 15.792395 5.90448 15.399449 C 5.90448 15.399449 6.299716 15.595922 6.189928 14.089629 L 6.299716 11.491817 C 6.299716 11.491817 6.497334 10.793246 7.595212 10.902398 C 7.595212 10.902398 9.593349 10.98972 9.790967 10.793246 C 9.790967 10.793246 10.208161 10.203827 10.405779 10.007354 C 10.405779 10.007354 11.393869 9.898202 11.591487 10.203827 C 11.591487 10.203827 13.106559 11.208023 18.903354 10.793246 C 18.903354 10.793246 19.803614 10.793246 20.001232 11.098871 C 20.001232 11.098871 21.09911 11.906594 21.691964 10.98972 C 21.691964 10.98972 22.592224 10.793246 25.490621 10.902398 C 25.490621 10.902398 28.608594 11.710121 30.694562 10.007354 L 31.397204 10.094675 C 31.397204 10.094675 32.297464 11.600969 32.890318 11.098871 C 32.890318 11.098871 34.800626 10.902398 35.108032 11.295344 C 35.108032 11.295344 35.700886 12.190388 35.39348 14.700878 C 35.39348 14.700878 34.998244 15.792395 36.908551 15.792395 C 36.908551 15.792395 38.994519 15.399449 38.709071 17.407841 C 38.709071 17.407841 39.301925 19.590876 35.810673 19.307081 C 35.810673 19.307081 35.39348 19.8965 35.39348 20.398598 C 35.39348 20.398598 35.30565 27.602612 35.30565 28.410335 C 35.30565 28.410335 35.195862 29.501852 36.798763 29.501852 C 36.798763 29.501852 38.796901 29.392701 38.906689 31.204619 C 38.906689 31.204619 39.192137 33.605957 36.205909 33.191181 C 36.205909 33.191181 35.30565 33.300332 35.195862 33.889752 L 34.998244 37.098812 C 34.998244 37.098812 35.108032 38.692428 33.307512 38.299481 C 33.000106 38.299481 23.404653 38.495955 22.592224 38.19033 C 22.592224 38.19033 22.196988 38.103008 21.999369 38.408633 Z M 21.999369 38.408633 " stroke="#000000" stroke-width="0.219" stroke-opacity="1" stroke-miterlimit="4"/><path fill="#ffffff" d="M 3.660156 8.433594 C 3.660156 8.433594 3.679688 8.667969 3.679688 8.71875 C 3.679688 8.773438 3.644531 11.996094 3.644531 11.996094 C 3.644531 11.996094 3.679688 12.246094 3.464844 12.371094 C 3.464844 12.371094 3.410156 12.386719 3.394531 12.226562 L 3.410156 8.828125 C 3.429688 8.828125 3.445312 8.414062 3.660156 8.433594 " fill-opacity="1" fill-rule="nonzero"/><path stroke-linecap="butt" transform="matrix(0.1779, 0, 0, 0.178937, 1.863655, 6.232755)" fill="none" stroke-linejoin="miter" d="M 10.098373 12.29954 C 10.098373 12.29954 10.208161 13.609361 10.208161 13.893155 C 10.208161 14.19878 10.010543 32.208815 10.010543 32.208815 C 10.010543 32.208815 10.208161 33.605957 9.000495 34.304528 C 9.000495 34.304528 8.693089 34.39185 8.605259 33.496805 L 8.693089 14.504405 C 8.802877 14.504405 8.890707 12.190388 10.098373 12.29954 Z M 10.098373 12.29954 " stroke="#000000" stroke-width="0.231" stroke-opacity="1" stroke-miterlimit="4"/><path fill="#ffffff" d="M 3.285156 12.40625 C 3.285156 12.40625 3.304688 9.222656 3.304688 9.148438 C 3.285156 9.097656 3.304688 9.203125 3.304688 9.203125 C 3.304688 9.203125 3.269531 8.648438 3.410156 8.414062 C 3.410156 8.414062 3.359375 8.21875 3.109375 8.46875 L 3.109375 8.933594 C 3.109375 8.933594 3.109375 9.203125 2.878906 9.183594 C 2.878906 9.183594 2.609375 9.167969 2.484375 9.292969 C 2.484375 9.292969 2.414062 9.542969 2.683594 9.488281 C 2.683594 9.488281 3.089844 9.488281 3.109375 9.652344 L 3.089844 11.367188 C 3.089844 11.367188 3.179688 11.65625 2.859375 11.65625 C 2.859375 11.65625 2.484375 11.636719 2.484375 11.871094 C 2.484375 11.871094 2.558594 12.066406 2.894531 12.011719 C 2.894531 12.011719 3.125 12.066406 3.125 12.28125 L 3.125 12.710938 C 3.125 12.710938 3.109375 12.890625 3.324219 12.890625 L 5.066406 12.890625 C 5.066406 12.890625 5.15625 12.90625 5.15625 12.78125 C 5.15625 12.78125 5.136719 12.691406 5.011719 12.691406 L 3.554688 12.675781 C 3.554688 12.675781 3.304688 12.746094 3.285156 12.40625 " fill-opacity="1" fill-rule="nonzero"/><path fill="#ffffff" d="M 3.589844 12.425781 C 3.589844 12.425781 3.535156 12.585938 3.714844 12.550781 L 4.871094 12.550781 L 5.191406 12.621094 C 5.191406 12.621094 5.511719 12.550781 5.191406 12.351562 C 5.191406 12.351562 4.160156 12.371094 4.070312 12.335938 C 4.070312 12.335938 3.855469 12.28125 3.804688 12.261719 C 3.804688 12.28125 3.695312 12.226562 3.589844 12.425781 " fill-opacity="1" fill-rule="nonzero"/><path stroke-linecap="butt" transform="matrix(0.1779, 0, 0, 0.178937, 1.863655, 6.232755)" fill="none" stroke-linejoin="miter" d="M 9.703137 34.610153 C 9.703137 34.610153 9.395731 35.505197 10.405779 35.308724 L 16.905216 35.308724 L 18.705736 35.70167 C 18.705736 35.70167 20.506256 35.308724 18.705736 34.195377 C 18.705736 34.195377 12.908941 34.304528 12.403917 34.108055 C 12.403917 34.108055 11.196251 33.80243 10.910803 33.693279 C 10.910803 33.80243 10.295991 33.496805 9.703137 34.610153 Z M 9.703137 34.610153 " stroke="#000000" stroke-width="0.231" stroke-opacity="1" stroke-miterlimit="4"/><path fill="#ffffff" d="M 5.511719 12.585938 C 5.511719 12.585938 5.296875 12.585938 5.316406 12.871094 C 5.316406 12.871094 5.332031 13.085938 5.5625 13.085938 C 5.5625 13.085938 5.757812 13.050781 5.742188 12.816406 C 5.742188 12.816406 5.617188 12.53125 5.511719 12.585938 " fill-opacity="1" fill-rule="nonzero"/><path fill="#ffffff" d="M 5.671875 12.460938 C 5.671875 12.460938 5.777344 12.351562 5.832031 12.351562 C 5.832031 12.351562 6.953125 12.460938 7.148438 12.316406 C 7.148438 12.316406 7.308594 12.28125 7.359375 12.316406 C 7.359375 12.316406 7.519531 12.460938 7.519531 12.53125 C 7.519531 12.53125 7.503906 12.640625 7.308594 12.585938 C 7.308594 12.585938 6.027344 12.601562 5.972656 12.601562 C 5.992188 12.585938 5.636719 12.675781 5.671875 12.460938 " fill-opacity="1" fill-rule="nonzero"/><path stroke-linecap="butt" transform="matrix(0.1779, 0, 0, 0.178937, 1.863655, 6.232755)" fill="none" stroke-linejoin="miter" d="M 21.406515 34.806626 C 21.406515 34.806626 21.999369 34.195377 22.306775 34.195377 C 22.306775 34.195377 28.608594 34.806626 29.706472 33.998903 C 29.706472 33.998903 30.606732 33.80243 30.89218 33.998903 C 30.89218 33.998903 31.79244 34.806626 31.79244 35.199572 C 31.79244 35.199572 31.70461 35.810822 30.606732 35.505197 C 30.606732 35.505197 23.404653 35.592519 23.097247 35.592519 C 23.207035 35.505197 21.208897 36.007295 21.406515 34.806626 Z M 21.406515 34.806626 " stroke="#000000" stroke-width="0.231" stroke-opacity="1" stroke-miterlimit="4"/><path fill="#ffffff" d="M 5.847656 12.800781 C 5.847656 12.800781 5.847656 12.710938 6.007812 12.710938 L 7.59375 12.691406 C 7.59375 12.691406 7.734375 12.765625 7.734375 12.496094 C 7.734375 12.496094 7.789062 11.261719 7.804688 9.902344 C 7.804688 9.488281 7.824219 9.078125 7.804688 8.683594 C 7.804688 8.683594 7.769531 8.523438 7.734375 8.488281 C 7.734375 8.488281 7.734375 8.308594 7.929688 8.378906 C 7.929688 8.378906 8.089844 8.398438 8.054688 8.648438 L 8.074219 9.042969 C 8.074219 9.042969 8.035156 9.203125 8.339844 9.167969 C 8.339844 9.167969 8.640625 9.203125 8.660156 9.328125 C 8.660156 9.328125 8.75 9.5625 8.394531 9.523438 L 8.125 9.523438 C 8.125 9.523438 8.019531 9.597656 8.054688 9.722656 L 8.019531 11.367188 C 8.019531 11.367188 8 11.65625 8.269531 11.636719 C 8.269531 11.636719 8.550781 11.617188 8.605469 11.707031 C 8.605469 11.707031 8.800781 11.996094 8.375 11.976562 C 8.375 11.976562 8.109375 11.957031 8.054688 12.011719 C 8.054688 12.011719 8.019531 12.066406 7.984375 12.601562 C 7.984375 12.601562 8 12.925781 7.769531 12.890625 C 7.769531 12.890625 6.203125 12.90625 6.0625 12.871094 C 6.027344 12.890625 5.867188 12.925781 5.847656 12.800781 " fill-opacity="1" fill-rule="nonzero"/><path fill="#ffffff" d="M 3.820312 8.34375 L 3.785156 11.976562 C 3.785156 11.976562 3.765625 12.136719 4.050781 12.171875 C 4.050781 12.171875 4.371094 12.210938 4.460938 12.171875 C 4.460938 12.171875 4.675781 12.15625 5.226562 12.191406 C 5.226562 12.191406 5.367188 12.335938 5.367188 12.15625 C 5.367188 12.15625 5.457031 9.222656 5.421875 8.59375 C 5.421875 8.59375 5.402344 8.328125 5.226562 8.328125 C 5.226562 8.328125 4.371094 8.398438 4.300781 8.328125 L 3.960938 8.238281 C 3.945312 8.238281 3.820312 8.253906 3.820312 8.34375 " fill-opacity="1" fill-rule="nonzero"/><path fill="#ffffff" d="M 7.394531 8.46875 L 7.378906 12.046875 C 7.378906 12.046875 7.46875 12.371094 7.609375 12.335938 C 7.609375 12.335938 7.628906 12.261719 7.644531 12.15625 L 7.699219 8.753906 C 7.699219 8.738281 7.59375 8.199219 7.394531 8.46875 " fill-opacity="1" fill-rule="nonzero"/><path stroke-linecap="butt" transform="matrix(0.1779, 0, 0, 0.178937, 1.863655, 6.232755)" fill="none" stroke-linejoin="miter" d="M 31.089798 12.496013 L 31.001968 32.49261 C 31.001968 32.49261 31.506992 34.304528 32.297464 34.108055 C 32.297464 34.108055 32.407252 33.693279 32.495082 33.103859 L 32.802488 14.089629 C 32.802488 14.002307 32.209634 10.98972 31.089798 12.496013 Z M 31.089798 12.496013 " stroke="#000000" stroke-width="0.231" stroke-opacity="1" stroke-miterlimit="4"/><path fill="#ffffff" d="M 5.597656 8.503906 C 5.597656 8.503906 5.5625 10.207031 5.582031 10.277344 L 5.5625 11.707031 L 5.511719 12.210938 C 5.511719 12.210938 5.582031 12.316406 5.636719 12.246094 C 5.636719 12.246094 5.992188 12.15625 6.222656 12.191406 C 6.222656 12.191406 6.953125 12.261719 7.09375 12.136719 C 7.09375 12.136719 7.199219 12.191406 7.234375 12.011719 C 7.234375 12.011719 7.289062 8.84375 7.253906 8.792969 C 7.253906 8.792969 7.308594 8.34375 7.273438 8.289062 C 7.273438 8.289062 7.253906 8.183594 7.074219 8.273438 C 7.074219 8.273438 7.09375 8.363281 6.027344 8.328125 C 6.027344 8.328125 5.617188 8.328125 5.597656 8.503906 " fill-opacity="1" fill-rule="nonzero"/><path fill="#1e1e1e" d="M 5.261719 9.542969 L 5.15625 9.757812 C 5.15625 9.757812 4.90625 10.847656 4.78125 11.082031 C 4.78125 11.082031 4.761719 11.316406 4.566406 11.136719 C 4.566406 11.136719 4.121094 9.738281 4.105469 9.703125 L 3.960938 9.597656 C 3.960938 9.597656 3.875 9.472656 4.035156 9.453125 L 4.441406 9.472656 C 4.441406 9.472656 4.585938 9.578125 4.390625 9.703125 C 4.390625 9.703125 4.40625 9.882812 4.65625 10.582031 C 4.65625 10.582031 4.726562 10.847656 4.800781 10.652344 L 5.03125 9.847656 L 4.960938 9.613281 C 4.960938 9.613281 4.886719 9.507812 4.996094 9.488281 C 4.996094 9.488281 5.226562 9.453125 5.261719 9.542969 " fill-opacity="1" fill-rule="nonzero"/><path fill="#1e1e1e" d="M 5.902344 9.738281 L 5.882812 10.9375 L 5.847656 11.027344 C 5.847656 11.027344 5.742188 11.171875 5.8125 11.1875 C 5.8125 11.1875 5.707031 11.261719 6.523438 11.261719 C 6.523438 11.261719 6.84375 11.316406 6.757812 10.902344 C 6.757812 10.902344 6.71875 10.761719 6.613281 10.972656 C 6.613281 10.972656 6.578125 11.152344 6.167969 11.101562 C 6.167969 11.101562 6.078125 11.027344 6.078125 10.9375 L 6.078125 10.4375 C 6.078125 10.4375 6.0625 10.3125 6.257812 10.332031 C 6.257812 10.332031 6.472656 10.472656 6.507812 10.402344 C 6.507812 10.402344 6.578125 10.222656 6.507812 10.117188 C 6.507812 10.117188 6.398438 10.097656 6.398438 10.152344 C 6.398438 10.152344 6.328125 10.292969 6.132812 10.207031 C 6.132812 10.207031 6.042969 10.027344 6.097656 9.882812 C 6.097656 9.882812 6.078125 9.597656 6.257812 9.613281 C 6.257812 9.613281 6.488281 9.667969 6.507812 9.722656 C 6.507812 9.722656 6.558594 9.863281 6.613281 9.703125 L 6.558594 9.507812 C 6.558594 9.507812 6.523438 9.4375 6.472656 9.453125 C 6.472656 9.453125 6.097656 9.507812 6.042969 9.472656 L 5.777344 9.488281 C 5.777344 9.488281 5.742188 9.597656 5.867188 9.652344 C 5.867188 9.667969 5.902344 9.6875 5.902344 9.738281 " fill-opacity="1" fill-rule="nonzero"/></svg>