<svg xmlns="http://www.w3.org/2000/svg" xmlns:xlink="http://www.w3.org/1999/xlink" width="94" zoomAndPan="magnify" viewBox="0 0 70.5 30.000001" height="40" preserveAspectRatio="xMidYMid meet" version="1.0"><path fill="#737373" d="M 11.082031 14.355469 C 11.082031 11.851562 13.175781 9.824219 15.792969 9.824219 C 18.429688 9.824219 20.523438 11.851562 20.523438 14.355469 C 20.523438 16.84375 18.429688 18.910156 15.792969 18.910156 C 13.175781 18.910156 11.082031 16.84375 11.082031 14.355469 Z M 18.261719 14.355469 C 18.261719 13.105469 17.15625 12 15.792969 12 C 14.445312 12 13.34375 13.105469 13.34375 14.355469 C 13.34375 15.628906 14.445312 16.734375 15.792969 16.734375 C 17.160156 16.734375 18.261719 15.628906 18.261719 14.355469 Z M 18.261719 14.355469 " fill-opacity="1" fill-rule="nonzero"/><path fill="#737373" d="M 58.585938 14.429688 C 58.585938 11.683594 60.847656 9.824219 62.90625 9.824219 C 64.308594 9.824219 65.113281 10.246094 65.652344 11.058594 L 65.867188 9.988281 L 67.972656 9.988281 L 67.972656 18.742188 L 65.867188 18.742188 L 65.597656 17.84375 C 64.980469 18.507812 64.214844 18.914062 62.90625 18.914062 C 60.886719 18.910156 58.585938 17.160156 58.585938 14.429688 Z M 65.765625 14.414062 C 65.765625 14.089844 65.699219 13.78125 65.574219 13.488281 C 65.449219 13.191406 65.269531 12.929688 65.039062 12.703125 C 64.808594 12.476562 64.539062 12.304688 64.238281 12.179688 C 63.9375 12.058594 63.625 12 63.296875 12 C 62.972656 12.003906 62.660156 12.066406 62.359375 12.1875 C 62.058594 12.3125 61.792969 12.488281 61.5625 12.714844 C 61.335938 12.945312 61.160156 13.207031 61.035156 13.503906 C 60.910156 13.800781 60.847656 14.109375 60.851562 14.429688 C 60.851562 15.648438 61.953125 16.734375 63.300781 16.734375 C 64.664062 16.734375 65.765625 15.648438 65.765625 14.414062 Z M 65.765625 14.414062 " fill-opacity="1" fill-rule="nonzero"/><path fill="#737373" d="M 56.003906 11.003906 L 56.003906 9.988281 L 53.703125 9.988281 L 53.703125 18.742188 L 56.003906 18.742188 L 56.003906 14.027344 C 56.003906 12.605469 56.714844 11.871094 57.945312 11.871094 C 58.027344 11.871094 58.105469 11.875 58.183594 11.882812 L 58.609375 9.769531 C 57.410156 9.773438 56.539062 10.179688 56.003906 11.003906 Z M 56.003906 11.003906 " fill-opacity="1" fill-rule="nonzero"/><path fill="#737373" d="M 32.898438 11.003906 L 32.898438 9.988281 L 30.601562 9.992188 L 30.621094 18.75 L 32.917969 18.742188 L 32.90625 14.027344 C 32.902344 12.605469 33.613281 11.867188 34.84375 11.867188 C 34.921875 11.867188 35.003906 11.871094 35.082031 11.878906 L 35.503906 9.761719 C 34.304688 9.773438 33.433594 10.179688 32.898438 11.003906 Z M 32.898438 11.003906 " fill-opacity="1" fill-rule="nonzero"/><path fill="#737373" d="M 21.320312 15.351562 L 21.320312 9.988281 L 23.617188 9.988281 L 23.617188 15.078125 C 23.617188 16.199219 24.253906 16.863281 25.355469 16.863281 C 26.589844 16.863281 27.300781 16.125 27.300781 14.707031 L 27.300781 9.988281 L 29.597656 9.988281 L 29.597656 18.742188 L 27.300781 18.742188 L 27.300781 17.730469 C 26.757812 18.558594 25.878906 18.964844 24.664062 18.964844 C 22.609375 18.964844 21.320312 17.492188 21.320312 15.351562 Z M 21.320312 15.351562 " fill-opacity="1" fill-rule="nonzero"/><path fill="#737373" d="M 43.707031 14.367188 C 43.710938 11.914062 45.492188 9.816406 48.3125 9.824219 C 50.929688 9.828125 52.777344 11.894531 52.773438 14.332031 C 52.773438 14.570312 52.753906 14.8125 52.714844 15.050781 L 45.949219 15.039062 C 46.207031 16.089844 47.085938 16.84375 48.410156 16.847656 C 49.214844 16.847656 50.074219 16.554688 50.601562 15.894531 L 52.167969 17.132812 C 51.363281 18.257812 49.941406 18.917969 48.425781 18.914062 C 45.753906 18.90625 43.703125 16.929688 43.707031 14.367188 Z M 50.457031 13.457031 C 50.328125 12.574219 49.394531 11.890625 48.292969 11.886719 C 47.226562 11.886719 46.367188 12.511719 46.027344 13.449219 Z M 50.457031 13.457031 " fill-opacity="1" fill-rule="nonzero"/><path fill="#737373" d="M 35.519531 16.835938 L 37.5625 15.78125 C 37.898438 16.503906 38.574219 16.929688 39.53125 16.929688 C 40.414062 16.929688 40.753906 16.652344 40.753906 16.261719 C 40.753906 14.851562 35.910156 15.707031 35.910156 12.488281 C 35.910156 10.710938 37.488281 9.765625 39.4375 9.765625 C 40.921875 9.765625 42.234375 10.414062 42.945312 11.617188 L 40.921875 12.671875 C 40.621094 12.082031 40.058594 11.75 39.34375 11.75 C 38.652344 11.75 38.3125 11.988281 38.3125 12.394531 C 38.3125 13.765625 43.15625 12.894531 43.15625 16.171875 C 43.15625 17.875 41.746094 18.910156 39.476562 18.910156 C 37.542969 18.90625 36.191406 18.277344 35.519531 16.835938 Z M 35.519531 16.835938 " fill-opacity="1" fill-rule="nonzero"/><path fill="#737373" d="M 1.953125 14.355469 C 1.953125 11.832031 4.046875 9.804688 6.664062 9.804688 C 7.460938 9.800781 8.214844 9.980469 8.921875 10.351562 C 9.625 10.71875 10.199219 11.234375 10.644531 11.890625 L 8.679688 13.011719 C 8.449219 12.6875 8.15625 12.433594 7.800781 12.25 C 7.445312 12.070312 7.0625 11.976562 6.664062 11.980469 C 5.316406 11.980469 4.214844 13.085938 4.214844 14.355469 C 4.214844 15.628906 5.316406 16.734375 6.664062 16.734375 C 7.085938 16.738281 7.480469 16.640625 7.847656 16.4375 C 8.21875 16.238281 8.515625 15.960938 8.738281 15.609375 L 10.679688 16.75 C 10.242188 17.425781 9.667969 17.957031 8.953125 18.339844 C 8.238281 18.722656 7.472656 18.914062 6.660156 18.90625 C 4.046875 18.910156 1.953125 16.84375 1.953125 14.355469 Z M 1.953125 14.355469 " fill-opacity="1" fill-rule="nonzero"/></svg>