<svg xmlns="http://www.w3.org/2000/svg" width="104" height="40" viewBox="0 0 104 40" fill="none"><path d="M21.4783 9.58914C20.3692 8.30502 18.3645 7.75448 15.7998 7.75448H8.3564C8.10252 7.75434 7.85693 7.84626 7.66382 8.01368C7.47071 8.18111 7.34276 8.41305 7.30299 8.66777L4.20504 28.637C4.19068 28.7296 4.19626 28.8243 4.22139 28.9145C4.24652 29.0048 4.29061 29.0884 4.35062 29.1597C4.41063 29.2309 4.48514 29.2881 4.56901 29.3273C4.65288 29.3665 4.74411 29.3868 4.83643 29.3867H9.43168L10.5858 21.9505L10.55 22.1834C10.589 21.9292 10.7161 21.6975 10.9084 21.53C11.1007 21.3626 11.3455 21.2704 11.5988 21.2701H13.7825C18.0723 21.2701 21.4313 19.5 22.4125 14.3797C22.4416 14.2283 22.4668 14.0809 22.4887 13.9369C22.7802 12.0443 22.4867 10.7562 21.479 9.58981" fill="#C1C4D0"></path><path d="M77.7343 19.0914C77.4534 20.9651 76.0449 20.9651 74.6827 20.9651H73.9076L74.4515 17.4667C74.4846 17.2554 74.6635 17.0999 74.8742 17.0999H75.23C76.1575 17.0999 77.0334 17.0999 77.4852 17.6363C77.7548 17.9574 77.8363 18.4339 77.7343 19.0914V19.0914ZM77.1413 14.2026H72.0028C71.8326 14.2027 71.6681 14.2644 71.5386 14.3766C71.4092 14.4889 71.3234 14.6443 71.2966 14.815L69.2202 28.1994C69.2107 28.2615 69.2145 28.3249 69.2313 28.3853C69.2481 28.4457 69.2776 28.5017 69.3178 28.5495C69.3579 28.5973 69.4078 28.6356 69.4639 28.662C69.52 28.6883 69.5811 28.702 69.6429 28.7021H72.2798C72.5256 28.7021 72.7349 28.5204 72.7733 28.2741L73.363 24.4783C73.4173 24.1263 73.7168 23.8658 74.0679 23.8658H75.6937C79.0792 23.8658 81.0323 22.2028 81.5425 18.9043C81.7724 17.4627 81.5517 16.3293 80.8872 15.5358C80.1565 14.6636 78.8612 14.2019 77.142 14.2019" fill="#C1C4D0"></path><path d="M41.0835 19.0915C40.8026 20.9651 39.3941 20.9651 38.0313 20.9651H37.2561L37.8001 17.4668C37.8332 17.2555 38.0121 17.1 38.2228 17.1H38.5785C39.5061 17.1 40.3819 17.1 40.8338 17.6364C41.1041 17.9574 41.1856 18.4339 41.0835 19.0915V19.0915ZM40.4906 14.2026H35.3521C35.0009 14.2026 34.7015 14.4624 34.6465 14.8151L32.5695 28.1994C32.5598 28.2615 32.5635 28.325 32.5803 28.3855C32.5971 28.4459 32.6266 28.502 32.6668 28.5498C32.7069 28.5976 32.7568 28.6359 32.813 28.6622C32.8692 28.6886 32.9303 28.7022 32.9922 28.7022H35.4461C35.7973 28.7022 36.0961 28.4424 36.1511 28.0897L36.7122 24.479C36.7665 24.1263 37.066 23.8665 37.4171 23.8665H39.043C42.4285 23.8665 44.3816 22.2028 44.8917 18.9044C45.1216 17.4627 44.901 16.3294 44.2365 15.5359C43.5057 14.6637 42.2105 14.202 40.4912 14.202L40.4906 14.2026ZM52.4206 23.8968C52.1821 25.325 51.0671 26.284 49.6433 26.284C48.9298 26.284 48.358 26.0505 47.991 25.609C47.6266 25.1715 47.4901 24.5476 47.6054 23.8538C47.8267 22.4377 48.9609 21.4484 50.3628 21.4484C51.0618 21.4484 51.6282 21.6839 52.0032 22.1295C52.3802 22.5784 52.5286 23.2056 52.4206 23.8968V23.8968ZM55.8498 19.0309H53.3892C53.2869 19.0308 53.188 19.0678 53.1102 19.1353C53.0324 19.2028 52.981 19.2964 52.9652 19.399L52.8579 20.0976L52.6856 19.8446C52.1529 19.0592 50.965 18.796 49.7791 18.796C47.0608 18.796 44.7387 20.8891 44.2868 23.8235C44.0516 25.2886 44.3855 26.6878 45.2031 27.6644C45.9537 28.5615 47.025 28.9351 48.3017 28.9351C50.4933 28.9351 51.7084 27.5056 51.7084 27.5056L51.5984 28.2001C51.5887 28.2622 51.5924 28.3258 51.6093 28.3863C51.6261 28.4468 51.6557 28.5029 51.6959 28.5507C51.7362 28.5985 51.7861 28.6369 51.8424 28.6631C51.8987 28.6894 51.9599 28.703 52.0218 28.7029H54.2372C54.5884 28.7029 54.8878 28.4438 54.9428 28.0904L56.2732 19.5343C56.2827 19.4721 56.2789 19.4086 56.262 19.3481C56.2451 19.2876 56.2155 19.2315 56.1752 19.1837C56.1349 19.1359 56.0849 19.0976 56.0286 19.0713C55.9723 19.045 55.9111 19.0315 55.8491 19.0316" fill="#C1C4D0"></path><path d="M89.0714 23.8968C88.8329 25.325 87.7179 26.284 86.2941 26.284C85.5806 26.284 85.0088 26.0505 84.6418 25.609C84.2774 25.1715 84.1409 24.5476 84.2562 23.8538C84.4775 22.4377 85.611 21.4484 87.0136 21.4484C87.7126 21.4484 88.279 21.6839 88.654 22.1295C89.031 22.5784 89.1794 23.2056 89.0714 23.8968V23.8968ZM92.5006 19.0309H90.04C89.9377 19.0308 89.8387 19.0678 89.761 19.1353C89.6832 19.2028 89.6318 19.2964 89.616 19.399L89.5086 20.0976L89.3364 19.8446C88.8037 19.0592 87.6158 18.796 86.4299 18.796C83.7122 18.796 81.3901 20.8891 80.9376 23.8235C80.7024 25.2886 81.037 26.6878 81.8545 27.6644C82.6052 28.5615 83.6765 28.9351 84.9532 28.9351C87.1454 28.9351 88.3605 27.5056 88.3605 27.5056L88.2505 28.2001C88.2406 28.2622 88.2441 28.3257 88.2608 28.3862C88.2775 28.4467 88.3069 28.5028 88.347 28.5507C88.3872 28.5985 88.4371 28.6369 88.4933 28.6632C88.5495 28.6894 88.6107 28.703 88.6725 28.7029H90.8874C91.2385 28.7029 91.538 28.4438 91.5936 28.0904L92.9239 19.5343C92.9335 19.4721 92.9297 19.4086 92.9128 19.3481C92.8959 19.2876 92.8663 19.2315 92.826 19.1837C92.7857 19.1359 92.7357 19.0976 92.6794 19.0713C92.6231 19.045 92.5619 19.0315 92.4999 19.0316" fill="#C1C4D0"></path><path d="M68.9553 19.0315H66.4814C66.2449 19.0315 66.0243 19.1507 65.8918 19.3499L62.4798 24.4541L61.0335 19.5491C60.9894 19.3995 60.899 19.2683 60.7757 19.175C60.6524 19.0816 60.5028 19.0311 60.3491 19.0309H57.9183C57.8501 19.0309 57.783 19.0474 57.7224 19.0791C57.6618 19.1108 57.6095 19.1567 57.5698 19.2131C57.5302 19.2694 57.5043 19.3345 57.4944 19.403C57.4845 19.4715 57.4908 19.5414 57.5128 19.607L60.2358 27.7276L57.6745 31.399C57.6292 31.4641 57.6025 31.5407 57.5971 31.6202C57.5917 31.6998 57.608 31.7794 57.6441 31.8502C57.6802 31.921 57.7347 31.9804 57.8018 32.0219C57.8688 32.0634 57.9458 32.0854 58.0243 32.0854H60.4955C60.7287 32.0854 60.948 31.969 61.0819 31.7738L69.3064 19.7147C69.351 19.6495 69.3773 19.5731 69.3822 19.4938C69.3872 19.4146 69.3707 19.3355 69.3345 19.2651C69.2983 19.1947 69.2438 19.1357 69.177 19.0945C69.1101 19.0533 69.0334 19.0316 68.9553 19.0315" fill="#C1C4D0"></path><path d="M95.4005 14.5708L93.291 28.2001C93.2815 28.2622 93.2853 28.3257 93.3021 28.3862C93.319 28.4467 93.3486 28.5027 93.3888 28.5505C93.429 28.5983 93.479 28.6366 93.5352 28.6629C93.5914 28.6892 93.6525 28.7029 93.7144 28.7029H95.8351C96.1863 28.7029 96.4857 28.4431 96.5407 28.0904L98.6204 14.7054C98.63 14.6433 98.6263 14.5798 98.6095 14.5192C98.5927 14.4587 98.5631 14.4026 98.5229 14.3548C98.4826 14.307 98.4326 14.2687 98.3764 14.2424C98.3201 14.2161 98.2589 14.2026 98.197 14.2026H95.8239C95.7217 14.2024 95.6228 14.2393 95.5452 14.3067C95.4675 14.3741 95.4162 14.4676 95.4005 14.5701" fill="#C1C4D0"></path><path d="M21.4783 9.58914C20.3692 8.30502 18.3645 7.75448 15.7998 7.75448H8.3564C8.10252 7.75434 7.85693 7.84626 7.66382 8.01368C7.47071 8.18111 7.34276 8.41305 7.30299 8.66777L4.20504 28.637C4.19068 28.7296 4.19626 28.8243 4.22139 28.9145C4.24652 29.0048 4.29061 29.0884 4.35062 29.1597C4.41063 29.2309 4.48514 29.2881 4.56901 29.3273C4.65288 29.3665 4.74411 29.3868 4.83643 29.3867H9.43168L10.5858 21.9505L10.55 22.1834C10.589 21.9292 10.7161 21.6975 10.9084 21.53C11.1007 21.3626 11.3455 21.2704 11.5988 21.2701H13.7825C18.0723 21.2701 21.4313 19.5 22.4125 14.3797C22.4416 14.2283 22.4668 14.0809 22.4887 13.9369C22.7802 12.0443 22.4867 10.7562 21.479 9.58981" fill="#C1C4D0"></path><path d="M11.8254 13.9617C11.8602 13.7391 11.972 13.5364 12.1406 13.39C12.3093 13.2436 12.5238 13.1631 12.7456 13.1628H18.5811C19.2721 13.1628 19.9168 13.2086 20.5058 13.3042C20.8278 13.3568 21.1464 13.4292 21.4598 13.5209C21.8157 13.6225 22.1601 13.7619 22.4874 13.9368C22.7802 12.0436 22.486 10.7561 21.4783 9.58908C20.3686 8.30563 18.3645 7.7551 15.7999 7.7551H8.35578C8.10212 7.75528 7.85685 7.84734 7.66401 8.01474C7.47118 8.18213 7.34342 8.4139 7.30369 8.66839L4.20442 28.6356C4.18996 28.7282 4.19544 28.8229 4.22048 28.9132C4.24553 29.0035 4.28954 29.0871 4.34949 29.1585C4.40944 29.2298 4.4839 29.2871 4.56774 29.3264C4.65158 29.3656 4.74281 29.386 4.83514 29.386H9.43105L10.5852 21.9491L11.8254 13.9617Z" fill="#C1C4D0"></path><path d="M22.4881 13.9361C22.4653 14.0842 22.4399 14.2318 22.4119 14.3789C21.4307 19.4986 18.0717 21.2693 13.7819 21.2693H11.5975C11.3443 21.2695 11.0995 21.3617 10.9073 21.5292C10.7151 21.6966 10.5882 21.9284 10.5494 22.1826L9.43109 29.3853L9.11308 31.4286C9.10044 31.5097 9.10526 31.5926 9.12722 31.6717C9.14917 31.7507 9.18774 31.824 9.24026 31.8864C9.29279 31.9489 9.35801 31.999 9.43145 32.0334C9.50488 32.0677 9.58478 32.0855 9.66563 32.0854H13.5394C13.9979 32.0854 14.3874 31.7462 14.4596 31.2866L14.4974 31.086L15.2275 26.3856L15.2739 26.1258C15.3086 25.9031 15.4204 25.7003 15.5892 25.5538C15.758 25.4074 15.9728 25.3269 16.1948 25.327H16.7745C20.527 25.327 23.4653 23.779 24.3239 19.2994C24.6817 17.4284 24.4962 15.865 23.5488 14.7673C23.2479 14.427 22.8885 14.1453 22.4881 13.9361" fill="#C1C4D0"></path><path d="M21.4604 13.5208C21.3107 13.4757 21.1563 13.4354 20.9973 13.3997C20.8383 13.364 20.674 13.3324 20.5057 13.3055C19.916 13.2079 19.2721 13.1621 18.5804 13.1621H12.7456C12.5235 13.1618 12.3086 13.2423 12.1398 13.3889C11.9711 13.5356 11.8595 13.7387 11.8253 13.9617L10.5851 21.9504L10.5493 22.1826C10.588 21.9284 10.715 21.6966 10.9072 21.5291C11.0994 21.3617 11.3442 21.2695 11.5974 21.2693H13.7818C18.0716 21.2693 21.4306 19.4993 22.4118 14.3789C22.4409 14.2275 22.4654 14.0808 22.488 13.9361C22.2288 13.7984 21.9589 13.6827 21.681 13.5902C21.6088 13.5659 21.5352 13.5431 21.4604 13.5202" fill="#C1C4D0"></path></svg>