<svg xmlns="http://www.w3.org/2000/svg" width="118" height="40" viewBox="0 0 118 40" fill="none"><path d="M44.4729 18.9969C44.4729 15.4695 43.4415 13.6585 41.3784 13.5594C40.5573 13.5216 39.7562 13.6491 38.9764 13.9443C38.3541 14.1614 37.9352 14.3765 37.7149 14.5938V23.0134C39.0345 23.821 40.2063 24.1965 41.2283 24.1374C43.3903 23.9976 44.4729 22.286 44.4729 18.9969ZM47.0178 19.1432C47.0178 20.9353 46.5868 22.4228 45.7198 23.6057C44.7537 24.9445 43.4147 25.6339 41.7028 25.6717C40.4123 25.7117 39.0827 25.3176 37.7146 24.4911V32.1435L35.5015 31.3737V14.3881C35.8647 13.9538 36.3322 13.5807 36.8986 13.2641C38.216 12.5156 39.8163 12.131 41.7003 12.1121L41.7316 12.1426C43.4534 12.1215 44.78 12.8109 45.7123 14.2086C46.5818 15.4908 47.0178 17.1341 47.0178 19.1432V19.1432ZM60.5435 24.1655C60.5435 26.5692 60.2966 28.2336 59.8028 29.1592C59.3064 30.0845 58.3619 30.8236 56.9673 31.374C55.8365 31.8083 54.6135 32.0445 53.3013 32.0847L52.9354 30.7248C54.2697 30.5479 55.2092 30.3706 55.754 30.1935C56.8267 29.8394 57.5627 29.2965 57.9672 28.5691C58.2916 27.9766 58.4513 26.8456 58.4513 25.1717V24.6098C56.938 25.2805 55.352 25.6133 53.6936 25.6133C52.6038 25.6133 51.6426 25.2805 50.8144 24.6098C49.8845 23.8801 49.4197 22.9548 49.4197 21.8332V12.8511L51.6329 12.1121V21.1526C51.6329 22.1181 51.9524 22.862 52.5916 23.3838C53.2308 23.9056 54.059 24.156 55.0736 24.1369C56.0881 24.1156 57.1752 23.7331 58.3301 22.9846V12.4376H60.5433V24.1655H60.5435ZM69.1829 25.5537C68.9405 25.5737 68.6973 25.5839 68.454 25.5843C67.2022 25.5843 66.2262 25.2941 65.5291 24.7108C64.834 24.1277 64.4855 23.3228 64.4855 22.2954V13.7954H62.9696V12.4379H64.4855V8.83244L66.6962 8.06504V12.4379H69.1829V13.7954H66.6962V22.2363C66.6962 23.0464 66.9188 23.62 67.3642 23.9555C67.7468 24.2316 68.3546 24.3898 69.1826 24.43V25.5537H69.1829ZM82.583 25.3767H80.3698V17.0467C80.3698 16.1991 80.1666 15.4695 79.7621 14.8605C79.2949 14.1708 78.646 13.8261 77.8128 13.8261C76.7982 13.8261 75.5295 14.3479 74.0065 15.3915V25.3767H71.7935V5.4656L74.0065 4.78564V13.8545C75.4205 12.8509 76.9654 12.348 78.6435 12.348C79.8156 12.348 80.7645 12.7329 81.4912 13.5003C82.22 14.2675 82.5832 15.2238 82.5832 16.3667V25.3767H82.583V25.3767ZM94.3459 18.657C94.3459 17.3017 94.0821 16.1826 93.5565 15.2972C92.9317 14.2183 91.9609 13.6491 90.6484 13.5902C88.2221 13.7271 87.0113 15.4222 87.0113 18.6713C87.0113 20.1611 87.2632 21.4055 87.7717 22.4042C88.4206 23.6769 89.3942 24.305 90.6922 24.2837C93.1279 24.2646 94.3459 22.3899 94.3459 18.657V18.657ZM96.7698 18.6711C96.7698 20.6003 96.2638 22.2058 95.2539 23.4877C94.1422 24.9235 92.6075 25.6434 90.6484 25.6434C88.7065 25.6434 87.1932 24.9232 86.1011 23.4877C85.1106 22.2058 84.6165 20.6003 84.6165 18.6711C84.6165 16.858 85.1516 15.3326 86.2221 14.0907C87.3529 12.7731 88.8394 12.1121 90.6775 12.1121C92.5151 12.1121 94.0116 12.7731 95.1642 14.0907C96.2347 15.3326 96.7698 16.858 96.7698 18.6711V18.6711ZM109.458 25.3767H107.244V16.5745C107.244 15.609 106.947 14.8556 106.351 14.3125C105.755 13.7719 104.961 13.5098 103.971 13.5308C102.92 13.5497 101.92 13.885 100.971 14.5344V25.3767H98.7577V14.2677C100.031 13.3637 101.203 12.7731 102.274 12.497C103.283 12.2397 104.174 12.1121 104.942 12.1121C105.467 12.1121 105.961 12.1615 106.426 12.2608C107.295 12.4568 108.003 12.8204 108.547 13.354C109.155 13.9443 109.458 14.6524 109.458 15.4813V25.3767V25.3767Z" fill="#C1C4D0"></path><path d="M13.6429 5.5454C12.5042 5.55049 11.4168 5.6452 10.4602 5.81041C7.64158 6.29609 7.12983 7.31227 7.12983 9.18669V11.6621H13.7905V12.4872H4.62997C2.69427 12.4872 0.999049 13.6218 0.468919 15.7801C-0.142694 18.2541 -0.169772 19.7978 0.468919 22.381C0.942409 24.3039 2.07322 25.674 4.00892 25.674H6.29911V22.7066C6.29911 20.5628 8.20127 18.6719 10.4602 18.6719H17.1131C18.9651 18.6719 20.4435 17.1851 20.4435 15.3715V9.18645C20.4435 7.42637 18.9206 6.104 17.1131 5.81017C15.9687 5.62461 14.7817 5.54007 13.6429 5.5454V5.5454ZM10.0408 7.5361C10.729 7.5361 11.2906 8.093 11.2906 8.77756C11.2906 9.45969 10.7287 10.0115 10.0408 10.0115C9.35047 10.0115 8.79102 9.45994 8.79102 8.77756C8.79102 8.093 9.35047 7.5361 10.0408 7.5361Z" fill="#C1C4D0"></path><path d="M21.2742 12.4868V15.3709C21.2742 17.607 19.3301 19.4889 17.1132 19.4889H10.4602C8.6378 19.4889 7.12988 21.0096 7.12988 22.7894V28.9739C7.12988 30.7342 8.69941 31.7695 10.4602 32.2744C12.5686 32.879 14.5905 32.9882 17.1132 32.2744C18.79 31.801 20.4435 30.8481 20.4435 28.9739V26.4987H13.7905V25.6737H23.7738C25.7098 25.6737 26.431 24.3569 27.1042 22.3807C27.7998 20.3464 27.7702 18.3896 27.1042 15.7798C26.6257 13.9007 25.712 12.4868 23.7738 12.4868H21.2742V12.4868ZM17.5323 28.1488C18.2226 28.1488 18.7821 28.7004 18.7821 29.3828C18.7821 30.0673 18.2226 30.6242 17.5323 30.6242C16.8441 30.6242 16.2825 30.0673 16.2825 29.3828C16.2825 28.7006 16.8444 28.1488 17.5323 28.1488Z" fill="#C1C4D0"></path><path d="M113.768 10.5138H114.156V8.14084H115.074V7.85791H112.848V8.14084H113.767V10.5138H113.768ZM115.419 10.5138H115.75V8.3465L116.47 10.5135H116.839L117.589 8.35377V10.5138H117.95V7.85815H117.472L116.652 10.1335L115.954 7.85815H115.419V10.5138" fill="#C1C4D0"></path><path opacity="0.444" d="M22.7922 36.4789C22.7922 37.411 18.7959 38.1666 13.866 38.1666C8.93629 38.1666 4.93994 37.411 4.93994 36.4789C4.93994 35.5468 8.93629 34.791 13.866 34.791C18.7959 34.791 22.7922 35.5468 22.7922 36.4789Z" fill="#C1C4D0"></path></svg>