<svg xmlns="http://www.w3.org/2000/svg" xmlns:xlink="http://www.w3.org/1999/xlink" width="250" zoomAndPan="magnify" viewBox="0 0 187.5 37.5" height="50" preserveAspectRatio="xMidYMid meet" version="1.0"><defs><g/><clipPath id="3cacb38a2a"><path d="M 1 6.457031 L 25.480469 6.457031 L 25.480469 30.949219 L 1 30.949219 Z M 1 6.457031 " clip-rule="nonzero"/></clipPath></defs><g clip-path="url(#3cacb38a2a)"><path fill="#ffffff" d="M 5.878906 26.539062 L 6.15625 26.8125 L 6.183594 26.839844 C 7.046875 27.734375 7.035156 29.171875 6.15625 30.054688 C 5.273438 30.933594 3.835938 30.945312 2.941406 30.082031 L 2.636719 29.777344 L 1.882812 29.019531 C 0.992188 28.128906 0.992188 26.671875 1.882812 25.78125 C 2.773438 24.890625 4.234375 24.890625 5.125 25.78125 Z M 21.167969 13.996094 L 24.570312 10.59375 C 25.460938 9.703125 25.460938 8.246094 24.570312 7.355469 C 23.675781 6.464844 22.21875 6.464844 21.328125 7.355469 L 18.195312 10.488281 L 17.925781 10.753906 L 16.304688 12.375 C 15.414062 13.265625 15.414062 14.722656 16.304688 15.617188 L 17.925781 17.238281 L 18.214844 17.523438 L 21.347656 20.660156 C 22.238281 21.550781 23.695312 21.550781 24.589844 20.660156 C 25.480469 19.769531 25.480469 18.308594 24.589844 17.417969 Z M 2.011719 7.375 L 2.011719 7.371094 C 2.902344 6.480469 4.363281 6.480469 5.253906 7.371094 L 24.546875 26.667969 C 25.441406 27.558594 25.441406 29.019531 24.546875 29.910156 C 23.65625 30.800781 22.199219 30.800781 21.304688 29.910156 L 2.011719 10.613281 C 1.121094 9.722656 1.121094 8.265625 2.011719 7.375 Z M 1.984375 16.613281 C 2.875 15.722656 4.332031 15.722656 5.226562 16.613281 L 12.175781 23.5625 L 15.308594 26.699219 C 16.199219 27.589844 16.199219 29.046875 15.308594 29.9375 C 14.417969 30.828125 12.957031 30.828125 12.070312 29.9375 L 8.933594 26.804688 L 1.984375 19.855469 C 1.09375 18.964844 1.09375 17.503906 1.984375 16.613281 Z M 1.984375 16.613281 " fill-opacity="1" fill-rule="evenodd"/></g><g fill="#ffffff" fill-opacity="1"><g transform="translate(27.427497, 24.624301)"><g><path d="M 4.75 0 L 4.75 -12.28125 L 0.5625 -12.28125 L 0.5625 -14.390625 L 11.59375 -14.390625 L 11.59375 -12.28125 L 7.375 -12.28125 L 7.375 0 Z M 4.75 0 "/></g></g></g><g fill="#ffffff" fill-opacity="1"><g transform="translate(42.762205, 24.624301)"><g><path d="M 1.390625 0 L 1.390625 -14.390625 L 4.03125 -14.390625 L 4.03125 -8.40625 L 10.484375 -8.40625 L 10.484375 -14.390625 L 13.125 -14.390625 L 13.125 0 L 10.484375 0 L 10.484375 -6.265625 L 4.03125 -6.265625 L 4.03125 0 Z M 1.390625 0 "/></g></g></g><g fill="#ffffff" fill-opacity="1"><g transform="translate(60.460524, 24.624301)"><g><path d="M 0.46875 0 L 5.734375 -14.390625 L 8.703125 -14.390625 L 13.96875 0 L 11.171875 0 L 10.015625 -3.328125 L 4.40625 -3.328125 L 3.234375 0 Z M 5.125 -5.390625 L 9.296875 -5.390625 L 7.203125 -11.375 Z M 5.125 -5.390625 "/></g></g></g><g fill="#ffffff" fill-opacity="1"><g transform="translate(78.056076, 24.624301)"><g><path d="M 1.390625 0 L 1.390625 -14.390625 L 4.53125 -14.390625 L 9.109375 -5.265625 L 13.640625 -14.390625 L 16.765625 -14.390625 L 16.765625 0 L 14.125 0 L 14.125 -9.9375 L 10.109375 -2.0625 L 8.046875 -2.0625 L 4.03125 -9.9375 L 4.03125 0 Z M 1.390625 0 "/></g></g></g><g fill="#ffffff" fill-opacity="1"><g transform="translate(99.392322, 24.624301)"><g><path d="M 8.140625 0.25 C 6.703125 0.25 5.441406 -0.0625 4.359375 -0.6875 C 3.285156 -1.320312 2.441406 -2.195312 1.828125 -3.3125 C 1.222656 -4.4375 0.921875 -5.734375 0.921875 -7.203125 C 0.921875 -8.660156 1.222656 -9.945312 1.828125 -11.0625 C 2.441406 -12.1875 3.285156 -13.0625 4.359375 -13.6875 C 5.441406 -14.320312 6.703125 -14.640625 8.140625 -14.640625 C 9.566406 -14.640625 10.820312 -14.320312 11.90625 -13.6875 C 12.988281 -13.0625 13.832031 -12.1875 14.4375 -11.0625 C 15.039062 -9.945312 15.34375 -8.660156 15.34375 -7.203125 C 15.34375 -5.734375 15.039062 -4.4375 14.4375 -3.3125 C 13.832031 -2.195312 12.988281 -1.320312 11.90625 -0.6875 C 10.820312 -0.0625 9.566406 0.25 8.140625 0.25 Z M 8.140625 -2.125 C 9.515625 -2.125 10.609375 -2.570312 11.421875 -3.46875 C 12.234375 -4.375 12.640625 -5.617188 12.640625 -7.203125 C 12.640625 -8.773438 12.234375 -10.015625 11.421875 -10.921875 C 10.609375 -11.828125 9.515625 -12.28125 8.140625 -12.28125 C 6.773438 -12.28125 5.679688 -11.828125 4.859375 -10.921875 C 4.035156 -10.015625 3.625 -8.773438 3.625 -7.203125 C 3.625 -5.617188 4.035156 -4.375 4.859375 -3.46875 C 5.679688 -2.570312 6.773438 -2.125 8.140625 -2.125 Z M 8.140625 -2.125 "/></g></g></g><g fill="#ffffff" fill-opacity="1"><g transform="translate(118.837664, 24.624301)"><g><path d="M 1.390625 0 L 1.390625 -14.390625 L 6.3125 -14.390625 C 8 -14.390625 9.382812 -14.09375 10.46875 -13.5 C 11.5625 -12.90625 12.367188 -12.066406 12.890625 -10.984375 C 13.421875 -9.910156 13.6875 -8.648438 13.6875 -7.203125 C 13.6875 -5.742188 13.421875 -4.472656 12.890625 -3.390625 C 12.367188 -2.316406 11.5625 -1.484375 10.46875 -0.890625 C 9.382812 -0.296875 8 0 6.3125 0 Z M 4.03125 -2.265625 L 6.1875 -2.265625 C 7.394531 -2.265625 8.347656 -2.457031 9.046875 -2.84375 C 9.742188 -3.238281 10.242188 -3.800781 10.546875 -4.53125 C 10.847656 -5.269531 11 -6.160156 11 -7.203125 C 11 -8.222656 10.847656 -9.101562 10.546875 -9.84375 C 10.242188 -10.582031 9.742188 -11.148438 9.046875 -11.546875 C 8.347656 -11.953125 7.394531 -12.15625 6.1875 -12.15625 L 4.03125 -12.15625 Z M 4.03125 -2.265625 "/></g></g></g><g fill="#ffffff" fill-opacity="1"><g transform="translate(136.638745, 24.624301)"><g><path d="M 1.390625 0 L 1.390625 -14.390625 L 6.3125 -14.390625 C 8 -14.390625 9.382812 -14.09375 10.46875 -13.5 C 11.5625 -12.90625 12.367188 -12.066406 12.890625 -10.984375 C 13.421875 -9.910156 13.6875 -8.648438 13.6875 -7.203125 C 13.6875 -5.742188 13.421875 -4.472656 12.890625 -3.390625 C 12.367188 -2.316406 11.5625 -1.484375 10.46875 -0.890625 C 9.382812 -0.296875 8 0 6.3125 0 Z M 4.03125 -2.265625 L 6.1875 -2.265625 C 7.394531 -2.265625 8.347656 -2.457031 9.046875 -2.84375 C 9.742188 -3.238281 10.242188 -3.800781 10.546875 -4.53125 C 10.847656 -5.269531 11 -6.160156 11 -7.203125 C 11 -8.222656 10.847656 -9.101562 10.546875 -9.84375 C 10.242188 -10.582031 9.742188 -11.148438 9.046875 -11.546875 C 8.347656 -11.953125 7.394531 -12.15625 6.1875 -12.15625 L 4.03125 -12.15625 Z M 4.03125 -2.265625 "/></g></g></g><g fill="#ffffff" fill-opacity="1"><g transform="translate(154.439827, 24.624301)"><g><path d="M 5.125 0 L 5.125 -5.125 L 0.28125 -14.390625 L 3.265625 -14.390625 L 6.453125 -7.75 L 9.625 -14.390625 L 12.5625 -14.390625 L 7.75 -5.125 L 7.75 0 Z M 5.125 0 "/></g></g></g><g fill="#ffffff" fill-opacity="1"><g transform="translate(170.473341, 24.624301)"><g><path d="M 0.46875 0 L 5.734375 -14.390625 L 8.703125 -14.390625 L 13.96875 0 L 11.171875 0 L 10.015625 -3.328125 L 4.40625 -3.328125 L 3.234375 0 Z M 5.125 -5.390625 L 9.296875 -5.390625 L 7.203125 -11.375 Z M 5.125 -5.390625 "/></g></g></g></svg>